<?xml version="1.0" encoding="utf-8"?>
<!-- Generator: Adobe Illustrator 18.1.0, SVG Export Plug-In . SVG Version: 6.00 Build 0)  -->
<svg version="1.1" xmlns="http://www.w3.org/2000/svg" xmlns:xlink="http://www.w3.org/1999/xlink" x="0px" y="0px"
	 viewBox="0 0 755.3 258.7" enable-background="new 0 0 755.3 258.7" xml:space="preserve">
<g id="Layer_1">
</g>
<g id="Layer_2">
</g>
<g id="Layer_3">
	<path fill="#73482F" d="M46.2,45.2c-3.4,0.3-6.8,1.4-9.8,2.9c-6.5,3-11.9,7.9-16.7,13.2c-2.3,2.6-4.2,5.4-6.1,8.2
		c-2,3-3.7,6.2-5.3,9.4c-1.5,3-2.9,6-4.1,9.2C2.9,91.3,2,94.7,1.3,98.1c-0.7,3.2-1.2,6.5-1.3,9.8c0,1.4,0.1,2.8,0.3,4.2
		c0.2,1.7,0.7,3.4,1.4,5c1.1,2.7,3,5.1,5,7.1c2.4,2.4,5.4,3.8,8.6,4.8c2.9,0.9,5.9,1.4,8.9,1.6c3.5,0.2,7.1-0.3,10.5-1.1
		c3.3-0.7,6.5-1.9,9.7-3c3.2-1.1,6.3-2.5,9.2-4.1c7.3-3.9,13.4-9.8,18.1-16.6c0.4-0.4,0.6-0.9,0.8-1.5c0.1-0.7-0.7-0.3-1-0.1
		c-0.6,0.4-1.2,0.8-1.8,1.3c-1,0.9-2,1.9-2.8,3c-0.4,0.6-0.9,1.2-1.3,1.9c-0.5,0.6-1,1.2-1.6,1.8c-0.2,0.2-0.4,0.3-0.5,0.5
		c-0.2,0.2-0.5,0.4-0.7,0.6c-0.6,0.5-1.2,0.9-1.9,1.4c-2.2,1.4-4.6,2.6-7,3.7c-4.2,1.8-8.5,3.3-12.9,4.4c-4.5,1.1-9.1,1.5-13.7,1
		c0.1,0,0.2,0,0.4,0c-2.6-0.3-5.2-0.9-7.7-1.8c-2.7-0.9-5-2.4-7.1-4.3c-1.8-1.7-3.2-3.7-4.4-5.8c-1.3-2.3-1.8-4.9-2.1-7.5
		c-0.2-2.2,0-4.3,0.2-6.4C7,96,7.4,93.8,7.9,91.6c1-4.4,2.4-8.7,4.2-12.9c2.3-5,4.9-9.9,7.9-14.5c0.7-1,1.4-2,2.2-3
		c0.4-0.5,0.8-0.9,1.2-1.4c0.3-0.3,0.6-0.6,0.9-0.9c0.4-0.4,0.8-0.8,1.3-1.1c0.7-0.5,1.4-1.1,2.1-1.6c1.3-0.8,2.7-1.6,4.1-2.3
		c4.2-1.8,8.8-2.8,13.4-2.5c1,0.2,2.1,0.5,3.1,0.8c0.4,0.1,0.7,0,1-0.2c1.1-0.6,2-1.5,2.8-2.3c0.6-0.6,1.2-1.3,1.8-2
		c0,0,1.2-1.7,0.8-1.8c-1.2-0.3-2.3-0.7-3.5-0.8c-0.7-0.1-1.5-0.1-2.2-0.1C48,45,47.1,45.1,46.2,45.2L46.2,45.2z M12,78.9
		c0,0.1,0,0.1-0.1,0.2C11.9,79,11.9,79,12,78.9L12,78.9z M54.6,118.2c-0.1,0-0.1,0.1-0.2,0.1C54.5,118.3,54.5,118.3,54.6,118.2
		L54.6,118.2z M53.9,47.8C53.9,47.8,53.9,47.8,53.9,47.8C53.9,47.8,53.9,47.8,53.9,47.8L53.9,47.8z"/>
	<path fill="#73482F" d="M126.3,75.4c-1.5,0.1-3,0.3-4.5,0.7c-1.7,0.4-3.3,1-4.8,1.6c-3.2,1.2-6.4,2.8-9.4,4.4
		c-6.5,3.5-12.4,7.9-17.7,13c-2.6,2.5-5,5.2-7.2,8c-2.1,2.7-3.7,5.7-5,8.9c-0.6,1.5-0.9,3-1.1,4.6c-0.2,1.4-0.3,2.8-0.1,4.2
		c0.2,1.5,0.7,2.8,1.4,4.2c0.8,1.6,1.9,2.8,3.3,3.8c2.4,1.9,5.5,2.9,8.4,3.5c3.3,0.7,6.9,0.7,10.2,0.2c3.2-0.4,6.5-1.4,9.5-2.7
		c3.2-1.3,6.1-3,8.9-4.9c6-4.1,11.1-9.4,15.1-15.5c1.8-2.7,3-5.7,3.9-8.8c0.9-3.4,0.9-6.8,0.3-10.3c-0.6-3.4-2.3-6.4-4.5-9
		c-1.7-2.2-4-3.8-6.4-5C126.8,75.8,126.8,75.4,126.3,75.4C126.4,75.4,126.3,75.4,126.3,75.4L126.3,75.4z M114.5,83
		c1.7-0.5,3.3-0.9,5-1c0,0.1,0,0.2,0.1,0.3c1.4,0.7,2.7,1.4,3.9,2.3c1.3,1,2.5,2.2,3.5,3.5c2.5,3,3.8,6.7,4.3,10.6
		c0.3,3.9-0.5,7.6-1.9,11.2c-0.6,1.4-1.4,2.7-2.2,4c-0.4,0.6-0.8,1.2-1.3,1.8c-0.2,0.3-0.5,0.5-0.7,0.8c-0.2,0.2-0.4,0.4-0.7,0.7
		c-0.4,0.4-0.8,0.7-1.2,1c-0.7,0.6-1.5,1.1-2.3,1.7c-1.9,1.2-3.9,2.3-6,3.3c-2.6,1.1-5.3,1.9-8.1,2.5c-3,0.6-6,0.7-9,0.5
		c-3.6-0.4-6.9-1.5-10-3.4c-2.9-1.8-4.7-4.9-5.2-8.3c-0.2-3.2,0.5-6.4,1.7-9.3c0.5-1.1,1.1-2.2,1.8-3.3c0.5-0.7,1-1.3,1.5-2
		c0.5-0.5,0.9-1.1,1.4-1.6c0.5-0.5,1-1,1.5-1.5c0.8-0.7,1.6-1.5,2.5-2.2c1.5-1.2,3-2.3,4.6-3.4c3.5-2.3,7.1-4.2,10.9-6
		C110.6,84.4,112.6,83.6,114.5,83L114.5,83z M98.2,126.1c0,0,0.1,0,0.1,0C98.3,126.1,98.2,126.1,98.2,126.1L98.2,126.1z"/>
	<path fill="#73482F" d="M205.8,63.3c-2.8,1.2-5.3,2.9-7.6,4.8c-2.7,2.3-5.2,4.9-7.4,7.8c-3.6,4.6-6.6,9.8-9,15.1
		c-0.3-3-0.8-5.9-1.6-8.8c-0.6-2.2-1.4-4.3-2.4-6.3c-0.4-0.8-0.9-1.6-1.5-2.3c-0.7-1-1.7-1.7-2.8-2.2c-1.7-0.9-3.9-0.6-5.6,0.2
		c-2.4,1.1-4.4,3.1-6.2,5c-1.2,1.3-2.3,2.6-3.3,4c0-0.9,0.1-1.8,0.1-2.6c0.1-1.7,0.1-3.4,0.3-5.1c0.2-2.3,0.5-4.5,0.8-6.8
		c0.1-0.4-0.1-0.5-0.4-0.4c-0.2,0.1-0.4,0.2-0.6,0.3c-0.6,0.4-1.2,0.8-1.8,1.3c-0.7,0.6-1.4,1.3-2,2c-0.3,0.3-0.5,0.6-0.8,1
		c-0.4,0.4-0.6,0.9-0.8,1.5c-0.3,2.3-0.5,4.5-0.8,6.8c-0.2,1.7-0.2,3.4-0.3,5.1c-0.2,3.7-0.3,7.4-0.4,11.2c0,0.7,0,1.4-0.1,2.1
		c-0.4,2.1-0.7,4.2-0.8,6.3c-0.2,2.4-0.1,4.8-0.1,7.2c0,2,0,4,0.4,6c0.1,0.6,2.8-1.6,2.8-1.6c0.7-0.6,1.4-1.3,2-2
		c0.3-0.3,0.5-0.6,0.8-1c0.4-0.4,0.6-0.9,0.8-1.5c0.2-4,0.2-7.9,0.3-11.9c0.1-2.4,0.2-4.9,0.2-7.3c0.7-3.2,1.8-6.4,3.1-9.4
		c0.6-1.4,1.3-2.7,2.1-4c0.8-0.2,1.6-0.4,2.5-0.3c1.7,0.5,3,1.4,4.1,2.7c1.1,1.2,1.8,2.8,2.4,4.3c1.6,3.7,2.3,7.8,2.9,11.8
		c0.2,1.9,0.4,3.8,0.6,5.7c0.2,2.6,0.3,5.1,0.4,7.7c-0.1,0.4,0.1,0.5,0.4,0.4c0.2-0.1,0.4-0.2,0.6-0.3c0.6-0.4,1.2-0.8,1.8-1.3
		c0.7-0.6,1.4-1.3,2-2c0.3-0.3,0.5-0.6,0.8-1c0.4-0.4,0.6-0.9,0.8-1.5c0.3-6,2.7-11.8,5.1-17.3c1.7-3.6,3.6-7.1,5.7-10.5
		c0.6-0.9,1.2-1.7,1.9-2.6c0.3-0.4,0.6-0.7,0.9-1.1c0.1-0.1,0.3-0.3,0.4-0.4c0,0,0.1-0.1,0.1-0.1c0.4-0.3,0.8-0.6,1.1-0.8
		c0.8-0.5,1.6-1,2.5-1.4c1.7-0.7,3.6-1.3,5.5-1.3c1.8,0.3,3.3,1,4.8,2.1c1.5,1.1,2.6,2.9,3.5,4.5c1.1,1.8,1.8,4,2.3,6
		c0.6,2.3,1,4.7,1.3,7.1c0.8,7.7,0.9,15.5,1,23.3c-0.1,0.4,0.1,0.5,0.4,0.4c0.2-0.1,0.4-0.2,0.6-0.3c0.6-0.4,1.2-0.8,1.8-1.3
		c0.7-0.6,1.4-1.3,2-2c0.3-0.3,0.5-0.6,0.8-1c0.4-0.4,0.6-0.9,0.8-1.5c-0.1-4.3-0.1-8.7-0.3-13c-0.2-3-0.3-6-0.6-8.9
		c-0.2-2.8-0.7-5.6-1.3-8.3c-0.7-3.1-1.9-6-3.7-8.6c-0.7-1-1.4-1.8-2.3-2.6c-1-0.9-2.4-1.5-3.7-1.9c-0.7-0.2-1.3-0.3-2-0.3
		C209.5,61.8,207.5,62.5,205.8,63.3L205.8,63.3z M164,76.7c-0.1,0-0.1,0.1-0.2,0.1c0,0,0,0,0,0C163.9,76.8,164,76.7,164,76.7
		L164,76.7z M163.6,77.3c-0.1,0-0.1,0.1-0.2,0.1c0,0,0,0,0,0C163.5,77.4,163.6,77.4,163.6,77.3L163.6,77.3z M163.2,77.6
		c0,0-0.1,0.1-0.1,0.1C163.1,77.6,163.1,77.6,163.2,77.6C163.2,77.6,163.2,77.6,163.2,77.6L163.2,77.6z M162.8,77.7
		c-0.2,0.1-0.3,0.2-0.5,0.3C162.5,77.9,162.7,77.8,162.8,77.7L162.8,77.7z M187.7,86.6c0,0.1-0.1,0.1-0.1,0.2
		C187.7,86.7,187.7,86.7,187.7,86.6L187.7,86.6z M175.3,95.6c0,0.1,0,0.2,0,0.3C175.3,95.8,175.3,95.7,175.3,95.6L175.3,95.6z"/>
	<path fill="#73482F" d="M246.3,62.4c-0.2,0.1-0.4,0.2-0.6,0.3c-0.6,0.4-1.2,0.8-1.8,1.3c-0.7,0.6-1.4,1.3-2,2
		c-0.3,0.3-0.5,0.6-0.8,1c-0.4,0.4-0.6,0.9-0.8,1.5c0.5,5.5,0.8,11,0.9,16.6c0.1,5.4,0.2,10.8-0.4,16.2c-0.1,0.3,0.1,0.5,0.4,0.4
		c0.2-0.1,0.4-0.2,0.6-0.3c0.6-0.4,1.2-0.8,1.8-1.3c0.7-0.6,1.4-1.3,2-2c0.3-0.3,0.5-0.6,0.8-1c0.4-0.4,0.6-0.9,0.8-1.5
		c0.6-5.3,0.5-10.8,0.4-16.2c-0.1-5.5-0.4-11.1-0.9-16.6c0.1-0.3,0-0.4-0.2-0.4C246.4,62.4,246.4,62.4,246.3,62.4L246.3,62.4z"/>
	<path fill="#73482F" d="M238.8,25.9c-0.5,0.2-1,0.5-1.5,0.8c-1.1,0.8-2.1,1.8-3,2.8c-0.5,0.6-0.9,1.2-1.3,1.8
		c-0.1,0.2-0.2,0.4-0.3,0.6c-0.1,0.3,0.1,0.5,0.4,0.4c0.5-0.2,1-0.5,1.5-0.8c1.1-0.8,2.1-1.8,3-2.8c0.5-0.6,0.9-1.2,1.3-1.8
		c0.1-0.2,0.2-0.4,0.3-0.6c0.1-0.3,0-0.4-0.2-0.4C238.9,25.9,238.9,25.9,238.8,25.9L238.8,25.9z"/>
	<path fill="#73482F" d="M264.7,52.7c-1.1,0.6-2,1.5-2.8,2.3c-0.6,0.6-1.2,1.3-1.8,2c-0.4,0.5-0.9,1.1-0.8,1.8c0.4,2,0.7,4,1,6
		c0.1,1.7,0.3,3.4,0.4,5c0.1,1.4,0.1,2.9,0.2,4.3c0.1,2.9,0.2,5.8,0.2,8.7c0.1,6.6,0.1,13.1,0.1,19.7c-0.1,0.4,0.1,0.5,0.4,0.4
		c0.2-0.1,0.4-0.2,0.6-0.3c0.6-0.4,1.2-0.8,1.8-1.3c0.7-0.6,1.4-1.3,2-2c0.3-0.3,0.5-0.6,0.8-1c0.4-0.4,0.6-0.9,0.8-1.5
		c0-3,0-5.9,0-8.9c0-2.8,0.1-5.7,0.5-8.5c0.5-3,1.5-5.9,2.6-8.7c0.6-1.4,1.3-2.7,2.1-3.9c0.3-0.4,0.5-0.7,0.8-1.1
		c0,0,0.1-0.1,0.1-0.1c0,0,0,0,0,0c0.1-0.1,0.3-0.2,0.4-0.4c0.1-0.1,0.2-0.2,0.3-0.2c0.7-0.4,1.4-0.8,2.1-1.1
		c3.4-1.4,6.9-2.2,10.6-1.9c1,0.2,1.8,0.5,2.7,1c1.1,0.6,2.1,1.4,3,2.2c1.6,1.4,2.6,3.3,3.6,5.2c2.3,4.5,3.2,9.4,3.8,14.3
		c0-0.1,0-0.1,0-0.2c0,0.1,0,0.1,0,0.2c0,0.1,0,0.1,0,0.2c0,0,0-0.1,0-0.1c0.5,4.6,0.5,9.2,0.7,13.8c0.1,2.9,0.3,5.9,0.8,8.8
		c0.4,0.1,0.7,0,1-0.2c1.1-0.6,2-1.5,2.8-2.3c0.6-0.6,1.2-1.3,1.8-2c0.4-0.5,0.9-1.1,0.8-1.8c-0.2-1-0.3-2.1-0.4-3.1
		c-0.3-5.2-0.4-10.5-0.8-15.7c-0.3-5.8-1.2-11.6-3.5-16.9c-1.1-2.4-2.4-4.6-4.2-6.5c-1.1-1.1-2.3-1.9-3.6-2.6
		c-1.3-0.6-2.7-0.7-4.1-0.8c-3.1-0.1-6,0.7-8.9,1.8c-2.9,1.1-5.3,2.8-7.7,4.7c-2.5,2.1-4.8,4.6-6.7,7.2c-0.3,0.5-0.7,0.9-1,1.4
		c0-0.1,0-0.2,0-0.3c-0.1-1.9-0.1-3.8-0.2-5.7c-0.2-1.9-0.3-3.8-0.5-5.7c-0.1-0.9-0.3-1.8-0.4-2.7c-0.2-1.3-0.4-2.6-0.7-3.8
		c-0.1,0-0.2,0-0.3,0C265.1,52.4,264.9,52.5,264.7,52.7L264.7,52.7z M287.5,62.1c0,0,0.1,0,0.1,0C287.6,62.1,287.5,62.1,287.5,62.1
		L287.5,62.1z M307.9,97.7c0,0,0,0.1,0,0.1C307.9,97.8,307.9,97.8,307.9,97.7L307.9,97.7z M300.4,84.8
		C300.4,84.8,300.4,84.8,300.4,84.8C300.4,84.8,300.4,84.8,300.4,84.8C300.4,84.8,300.4,84.8,300.4,84.8L300.4,84.8z"/>
	<path fill="#73482F" d="M363.4,66.5c-0.6,0.4-1.2,0.8-1.8,1.3c-0.7,0.6-1.4,1.3-2,2c-0.6,0.7-1.3,1.5-1.6,2.4
		c-0.2,0.6-0.5,1.2-0.7,1.8c-0.2,0.7-0.3,1.5-0.3,2.2c-0.1,1.8,0.1,3.5,0.3,5.3c0.2,1.5,0.5,3,0.8,4.5c-0.6,3.2-1.5,6.3-2.7,9.2
		c-0.5,1-1,2-1.6,2.9c-0.2,0.3-0.5,0.6-0.7,1c0,0,0,0,0,0c-0.1,0.1-0.2,0.2-0.3,0.2c-0.7,0.4-1.4,0.8-2.1,1.2
		c-2.7,1.1-5.5,1.5-8.3,1.3c-4-0.5-7.9-2-11.1-4.3c-1.7-1.2-3.1-2.7-4.2-4.4c-1.2-1.8-1.8-3.9-2.1-6c-0.3-3.4,0.3-6.6,1.6-9.7
		c0.3-0.5,0.5-1,0.8-1.5c0,0,0.1-0.1,0.1-0.1c0.7-0.4,1.3-0.8,2-1.1c1-0.4,2-0.8,3-1.1c1.6-0.5,3.2-0.6,4.9-0.8
		c3.1-0.2,6.2-0.1,9.3,0.2c1.6,0.2,3.1,0.4,4.7,0.7c0.4,0.1,0.7,0,1-0.2c1.1-0.6,2-1.5,2.8-2.3c0.6-0.6,1.2-1.3,1.8-2
		c0-0.1,1.2-1.7,0.8-1.8c-6.2-1-12.7-1.7-18.9-0.4c-6.6,1.5-12.3,6.1-16.3,11.5c-1.7,2.3-2.9,5-3.6,7.8c-0.7,2.8-0.7,5.6-0.2,8.5
		c0.5,3.1,2.2,5.5,4.4,7.6c2.1,2.1,4.8,3.4,7.5,4.4c2.7,1,5.6,1.5,8.4,1.4c3.2-0.1,6.2-1.2,9-2.8c3.2-1.8,5.9-4.5,8.4-7.2
		c1.3-1.5,2.5-3.1,3.6-4.9c0.5,2.2,1,4.5,1.6,6.7c0.5,2.2,0.8,4.5,1.2,6.7c0.3,1.8,0.6,3.5,0.9,5.3c0.4,2.2,0.6,4.5,0.9,6.8
		c0,0,0-0.1,0-0.1c0,0.1,0,0.1,0,0.2c0,0.1,0,0.1,0,0.2c0,0,0,0,0-0.1c0.6,5.8,0.9,11.7,0.5,17.5c-0.4,5.9-1.7,11.8-3.9,17.4
		c-0.6,1.4-1.4,2.7-2.2,4c-0.4,0.6-0.9,1.2-1.3,1.8c-0.3,0.4-0.7,0.8-1,1.2c-0.2,0.2-0.5,0.5-0.7,0.7c-0.3,0.3-0.6,0.5-0.9,0.8
		c-0.7,0.5-1.3,1-2,1.5c-1.6,1-3.3,1.9-5,2.8c-4.1,1.7-8.5,2.8-12.9,3.5c-4.6,0.7-9.4,0.9-14,0.5c-1.7-0.2-3.3-0.5-4.9-0.8
		c-1.7-0.4-3.1-1.1-4.5-2.1c-2.7-1.8-4.3-4.8-4.7-8c-0.1-2.2,0.4-4.3,1.2-6.3c0.2-0.5,0.5-0.9,0.7-1.4c0.2-0.2,0.4-0.5,0.5-0.7
		c0.1-0.1,0.2-0.2,0.3-0.3c0.6-0.6,1.2-1.3,1.9-1.9c0.3-0.3,0.6-0.6,1-0.8c1.9-1.4,3.8-2.8,5.7-4.1c6.1-4,12.7-7.2,19.2-10.4
		c2.2-1.1,4.4-2.1,6.6-3.1c2.7-1.3,5.3-2.6,8-3.8c0.6-0.4,1.2-0.8,1.8-1.3c1-0.9,2-1.9,2.8-3c0.4-0.4,0.6-0.9,0.8-1.5
		c0.1-0.8-0.7-0.3-1-0.1c-4.4,2-8.8,4.2-13.2,6.3c-4.6,2.2-9.2,4.6-13.7,6.9c-2.3,1.2-4.4,2.6-6.6,4c-3.1,2-6.2,4.2-9.1,6.5
		c-2.7,2.3-5.3,4.8-7.6,7.4c-1.2,1.3-2.3,2.7-3.2,4.2c-0.9,1.5-1.6,3.1-2.1,4.8c-0.8,2.8-0.6,5.6,0.4,8.3c1.1,3,3.6,5,6.4,6.3
		c1.3,0.6,2.8,0.8,4.2,1.1c1.4,0.2,2.8,0.4,4.2,0.5c3.6,0.3,7.2,0.1,10.7-0.2c3.3-0.3,6.6-1,9.8-1.9c3.3-0.9,6.5-2.2,9.6-3.8
		c6.5-3.5,11.9-8.8,16.4-14.5c2-2.5,3.6-5.2,4.8-8.2c1.4-3.3,2.3-6.7,3.1-10.1c1.4-6.9,1.3-14,0.9-21c-0.5-7.6-1.9-15-3.2-22.4
		c-0.1-0.5-0.2-1.1-0.4-1.6c-0.4-1.7-0.8-3.4-1.2-5.1c-0.6-2.8-1.4-5.5-2-8.3c0.3-1.6,0.5-3.3,0.7-5c0.1-1.2,0.2-2.4,0.2-3.6
		c0-0.8,0-1.5-0.1-2.3c0-0.5,0-1.2-0.1-1.7c-0.1-0.2-0.1-0.4-0.2-0.7c-0.2-0.2-0.5-0.4-0.8-0.6c-0.1,0-0.2,0-0.3,0
		C363.8,66.2,363.6,66.3,363.4,66.5L363.4,66.5z M328,75.1c-0.1,0.2-0.3,0.3-0.4,0.5c0,0,0,0,0,0C327.7,75.4,327.8,75.2,328,75.1
		L328,75.1z M327,76.1C327,76.1,327,76.2,327,76.1C327,76.2,327,76.1,327,76.1C327,76.1,327,76.1,327,76.1L327,76.1z M353.6,98.6
		c-0.1,0.1-0.2,0.2-0.3,0.3C353.4,98.8,353.5,98.7,353.6,98.6L353.6,98.6z M352.9,99.3c-0.1,0.1-0.3,0.2-0.4,0.3
		C352.6,99.5,352.8,99.4,352.9,99.3L352.9,99.3z M342.5,101.9c0,0,0.1,0,0.1,0C342.5,101.9,342.5,101.9,342.5,101.9L342.5,101.9z
		 M355.6,162c-0.1,0.1-0.2,0.1-0.2,0.2c0,0,0,0,0,0C355.5,162.1,355.5,162,355.6,162L355.6,162z M355.4,162.2
		C355.4,162.2,355.4,162.2,355.4,162.2C355.4,162.2,355.4,162.2,355.4,162.2C355.4,162.2,355.4,162.2,355.4,162.2L355.4,162.2z
		 M364.5,119.1C364.5,119.1,364.5,119.1,364.5,119.1c0-0.1,0-0.2,0-0.2C364.5,119,364.5,119.1,364.5,119.1L364.5,119.1z M356.9,69.3
		C356.9,69.3,356.9,69.3,356.9,69.3C356.9,69.3,356.9,69.3,356.9,69.3L356.9,69.3z"/>
	<path fill="#73482F" d="M478.3,0.1c-3.1,0.2-6.3,0.9-9.2,1.8c-6.3,1.9-11.8,5.4-16.7,9.6c-2.9,2.5-5.5,5.3-7.9,8.3
		c-2.1,2.6-4,5.4-5.4,8.5c-1.4,3-2.2,6.1-2.3,9.4c-0.1,3,0.7,6,2,8.7c2.9,5.7,8.2,9.5,13.6,12.5c2.3,1.3,4.8,2.4,7.3,3.5
		c1.3,0.6,2.7,1.2,4,1.8c4.5,2,9.1,3.9,13,6.9c2.4,1.8,4.4,4.1,6,6.6c1.7,2.6,2.5,5.7,2.9,8.8c0.2,1.9,0.2,3.7,0,5.6
		c-0.2,2-0.8,3.9-1.5,5.8c-0.4,0.8-0.8,1.6-1.3,2.4c-0.2,0.3-0.5,0.6-0.7,0.9c-0.2,0.2-0.3,0.4-0.5,0.6c-0.2,0.2-0.4,0.4-0.5,0.6
		c-0.1,0.1-0.2,0.2-0.3,0.3c-0.5,0.4-0.9,0.7-1.4,1c-1.1,0.7-2.2,1.3-3.4,1.8c-2.1,0.9-4.2,1.6-6.4,2.1c-2.3,0.6-4.8,0.9-7.1,1.2
		c-2.5,0.3-5,0.5-7.5,0.6c-2.6,0.1-5.2,0.2-7.8,0c-1.8-0.2-3.5-0.5-5.2-1c-1.8-0.5-3.6-1.2-5.3-2c-1.8-0.8-3.4-1.7-5.1-2.7
		c-0.7-0.4-1.3-0.8-2-1.2c-0.5-0.3-1.5-0.8-1.7-1.3c-0.4-0.1-0.7,0-1,0.2c-1.1,0.6-2,1.5-2.8,2.3c-0.6,0.6-1.2,1.3-1.8,2
		c-0.2,0.3-1.1,1.3-0.8,1.8c0.2,0.3,0.8,0.8,1.1,0.9c0.6,0.4,1.3,0.8,1.9,1.1c1.4,0.8,2.8,1.7,4.3,2.4c3.1,1.6,6.4,2.8,9.9,3.4
		c3.2,0.6,6.5,0.6,9.7,0.4c3.6-0.2,7.2-0.5,10.8-1c3.2-0.5,6.2-1.2,9.2-2.2c3.2-1.1,6.2-2.8,9-4.8c2.9-2.1,5.6-4.8,7.9-7.5
		c1.1-1.3,2.2-2.7,3.1-4.1c0.9-1.4,1.6-3,2.3-4.5c1.2-3.1,1.5-6.3,1.4-9.5c-0.1-3.3-0.9-6.6-2.3-9.5c-1.3-2.7-3.3-5-5.5-6.9
		c-2.6-2.3-5.8-4-8.9-5.5c-3.1-1.5-6.2-2.8-9.3-4.1c-2.5-1.1-4.9-2.2-7.3-3.5c-3-1.6-5.8-3.6-8.4-5.8c-1.8-1.6-3.2-3.4-4.5-5.4
		c-1.4-2.2-2.2-4.6-2.6-7.1c-0.2-1.8-0.1-3.6,0.2-5.4c0.3-1.8,0.9-3.6,1.6-5.2c0.6-1.3,1.3-2.5,2.1-3.8c0.5-0.7,1-1.4,1.6-2.1
		c0.4-0.5,0.8-1,1.3-1.4c0.3-0.3,0.6-0.7,1-1c0.4-0.4,0.8-0.7,1.2-1.1c0.8-0.6,1.6-1.2,2.4-1.7c1.6-1,3.2-1.9,4.8-2.7
		c2.6-1.1,5.2-1.9,7.9-2.5c2.7-0.6,5.5-1,8.3-0.8c1.3,0.2,2.5,0.5,3.8,0.8c0.4,0.1,0.7,0,1-0.2c1.1-0.6,2-1.5,2.8-2.3
		c0.6-0.6,1.2-1.3,1.8-2c0,0.1,1.3-1.7,0.8-1.8c-1.1-0.3-2.1-0.5-3.2-0.7C481.7,0.1,480.8,0,480,0C479.4,0,478.9,0,478.3,0.1
		L478.3,0.1z"/>
	<path fill="#73482F" d="M542,56.8c-3.3,0.6-6.6,1.7-9.7,3c-3.1,1.3-5.9,2.9-8.7,4.8c-3.1,2.2-5.9,5-8.6,7.7
		c-2.5,2.6-4.8,5.5-6.8,8.5c-1.8,2.9-3.2,6.1-4.1,9.3c-0.8,2.8-1,5.9-0.6,8.8c0.2,1.5,1,2.8,1.8,4c1,1.4,2.3,2.6,3.7,3.7
		c2.3,1.7,5.3,2.7,8,3.4c3.2,0.9,6.7,1.2,10.1,1.1c6.9,0,13.7-2.1,19.3-6.1c3.1-2.2,6-4.9,8.2-8c1.9-2.7,3.3-5.9,4.2-9.1
		c0.5-1.6,0.7-3.2,1-4.8c0.3-1.6,0.5-3.2,0.7-4.8c0.3-3.5-0.1-6.9-1.2-10.2c-1.5-4.5-5.1-7.6-8.5-10.5c-0.1,0-0.2,0-0.3,0
		c0.1-0.2,0.1-0.4,0-0.5c-1.3-0.3-2.6-0.5-3.9-0.6c-0.2,0-0.5,0-0.7,0C544.7,56.3,543.4,56.6,542,56.8L542,56.8z M533.3,63.9
		c2.8-0.8,5.6-1.2,8.5-1.1c0.8,0.1,1.6,0.3,2.5,0.5c0.1,0,0.2,0,0.2,0c-0.1,0.2-0.1,0.4,0,0.5c1.7,1.5,3.4,3,5,4.7
		c2.7,2.9,4.1,6.6,4.6,10.4c0.3,3.3,0,6.5-0.6,9.7c-0.3,1.6-0.6,3.2-1,4.8c-0.3,1.3-0.8,2.6-1.4,3.9c-0.4,0.8-0.8,1.6-1.3,2.4
		c-0.1,0-0.1,0.1-0.2,0.1c-1.3,0.8-2.6,1.5-4,2.2c-5.5,2.2-11.5,2.8-17.4,2.3c-4-0.5-7.9-1.6-11.5-3.5c-1.7-1-3.2-2.3-4.5-3.8
		c-1.3-1.5-2.1-3.2-2.4-5.2c-0.1-2,0-4,0.4-5.9c0.3-2,1.1-3.9,1.9-5.7c0.7-1.5,1.5-2.9,2.3-4.2c0.4-0.5,0.8-1.1,1.2-1.6
		c0.4-0.4,0.7-0.9,1.1-1.3c0.6-0.7,1.3-1.3,1.9-1.9c0.5-0.4,0.9-0.8,1.4-1.2c0.4-0.3,0.9-0.6,1.3-1c1.6-1,3.3-1.9,5.1-2.7
		C528.7,65.4,531,64.6,533.3,63.9L533.3,63.9z M549.8,99.9C549.8,99.9,549.8,100,549.8,99.9c-0.1,0-0.1,0.1-0.2,0.1
		C549.7,100,549.7,100,549.8,99.9L549.8,99.9z"/>
	<path fill="#73482F" d="M605.8,42.1c-1.1,0.6-2,1.5-2.8,2.3c-0.6,0.6-1.2,1.3-1.8,2c0.1-0.1-1.3,1.7-0.8,1.8c0.3,0,0.6,0.1,0.8,0.2
		c-2.3,1-4.5,2.2-6.6,3.4c-6.5,3.8-12.1,8.8-16.5,14.9c-1.9,2.6-3.4,5.4-4.6,8.4c-1.3,3.2-1.9,6.5-1.9,9.9c0,2.9,0.9,5.7,2.3,8.2
		c1.7,2.9,4.5,4.9,7.4,6.3c1.4,0.7,2.9,1.1,4.4,1.5c1.5,0.4,3.1,0.7,4.6,0.9c3.2,0.4,6.6,0.3,9.6-0.8c3.1-1.2,5.8-3.3,8.1-5.6
		c2.6-2.6,4.7-5.8,6.2-9.2c1.2-2.9,1.9-5.9,2.5-9c0.5-2.7,0.7-5.4,0.8-8.1c0.1-3.3,0.3-6.6,0.3-9.8c0-1.8-0.2-3.6-0.4-5.4
		c-0.3-2.1-0.9-4.1-1.9-5.9c-1.7-3.3-5.3-5.4-8.9-6c-0.1,0-0.2,0-0.3,0C606.2,41.8,606,41.9,605.8,42.1L605.8,42.1z M607.4,51.9
		c0.2,0.2,0.3,0.3,0.5,0.5c1,1.1,1.7,2.5,2.3,3.9c0.7,1.6,0.9,3.4,1.1,5.2c0.4,4.2,0,8.4-0.2,12.6c-0.1,2.3-0.3,4.7-0.6,7
		c-0.2,1.9-0.6,3.7-1.1,5.5c-0.4,1.6-0.9,3.2-1.5,4.7c-0.4,0.9-0.9,1.8-1.4,2.6c-0.2,0.1-0.5,0.3-0.7,0.4c-1.3,0.5-2.6,0.8-4,1
		c-1.7,0.2-3.5,0.2-5.2,0c-2.1-0.3-4.1-0.7-6.1-1.3c-2.2-0.6-4.3-1.7-6.2-3c-3.5-2.4-5.7-6.3-6.2-10.5c-0.1-2,0-3.9,0.3-5.9
		c0.3-2.2,1.1-4.3,2-6.3c0.7-1.4,1.4-2.8,2.3-4.1c0.4-0.6,0.8-1.1,1.2-1.7c0.2-0.3,0.5-0.5,0.7-0.8c0.2-0.2,0.3-0.3,0.5-0.5
		c0.1-0.1,0.2-0.1,0.3-0.2c1-0.8,2-1.5,3.1-2.2c2.4-1.5,4.8-2.9,7.4-4C599.5,53.2,603.4,51.9,607.4,51.9L607.4,51.9z M596.3,95.3
		c0,0,0.1,0,0.1,0C596.4,95.3,596.4,95.3,596.3,95.3L596.3,95.3z"/>
	<path fill="#73482F" d="M649.3,45.9c-0.2,0.1-0.4,0.2-0.6,0.3c-0.6,0.4-1.2,0.8-1.8,1.3c-0.7,0.6-1.4,1.3-2,2
		c-0.6,0.6-1.4,1.5-1.6,2.4c-0.8,3.9-1.4,7.9-2.3,11.8c-0.9,4.3-1.8,8.6-2.7,12.8c-0.8,3.7-1.5,7.5-2.2,11.2
		c-0.1,0.7-0.3,1.4-0.4,2.1c-0.1,0.4-0.2,0.7-0.3,1.1c-0.4,1.6-0.8,3.2-1.2,4.8c-0.4,1.7-0.5,3.3-0.6,5c-0.1,0.4,0.1,0.5,0.4,0.4
		c0.2-0.1,0.4-0.2,0.6-0.3c0.6-0.4,1.2-0.8,1.8-1.3c0.7-0.6,1.4-1.3,2-2c0.6-0.7,1.3-1.5,1.6-2.4c0.5-1.5,0.6-3.1,0.9-4.6
		c0.1-0.9,0.3-1.7,0.4-2.6c0.2-1.2,0.4-2.5,0.7-3.7c0.9-3.3,2-6.6,3.3-9.8c1.1-2.4,2.3-4.7,3.7-7c0.5-0.8,1.1-1.5,1.6-2.2
		c0.5-0.6,0.9-1.1,1.4-1.6c0.1-0.1,0.1-0.1,0.2-0.2c0.2-0.2,0.4-0.4,0.7-0.6c0.2-0.1,0.3-0.2,0.5-0.3c0.7-0.5,1.5-0.9,2.2-1.2
		c0.9-0.3,1.8-0.6,2.7-0.8c0.9-0.2,1.9-0.2,2.9-0.2c1.1,0.1,2.2,0.4,3.2,0.8c1.4,0.5,2.7,1.4,3.9,2.3c2.4,1.8,4.2,4.4,5.8,6.9
		c3.2,5.3,4.8,11.3,5.5,17.4c0.8,7.4,1,14.9,1,22.3c-0.1,0.3,0.1,0.5,0.4,0.4c0.2-0.1,0.4-0.2,0.6-0.3c0.6-0.4,1.2-0.8,1.8-1.3
		c0.7-0.6,1.4-1.3,2-2c0.3-0.3,0.5-0.6,0.8-1c0.4-0.4,0.6-0.9,0.8-1.5c0-4.4-0.1-8.9-0.3-13.3c-0.2-4.1-0.4-8.1-1-12.1
		c-1-6.3-3.2-12.5-7-17.7c-1.6-2.2-3.5-4.1-5.8-5.5c-2.4-1.5-5.3-2.1-8.1-1.9c-1.4,0.1-2.9,0.7-4.2,1.3c-1.4,0.6-2.8,1.4-4.1,2.3
		c-3,2.2-5.6,4.7-8.1,7.5c-1.2,1.4-2.4,2.8-3.4,4.3c0.8-3.7,1.6-7.5,2.4-11.2c0.8-3.9,1.4-7.9,2.3-11.8c0.1-0.3,0-0.4-0.2-0.4
		C649.4,45.9,649.4,45.9,649.3,45.9L649.3,45.9z M645.4,74.6c0,0.1-0.1,0.2-0.1,0.3C645.3,74.8,645.3,74.7,645.4,74.6L645.4,74.6z
		 M679.8,87.6c0,0.1,0,0.2,0,0.2C679.8,87.7,679.8,87.6,679.8,87.6L679.8,87.6z M679.8,87.8c0,0,0,0.1,0,0.1
		C679.8,87.9,679.8,87.9,679.8,87.8L679.8,87.8z"/>
	<path fill="#D9C4B8" d="M695,104.3c-10.8,0-21.6,0.6-32.4,1.6c-5.2,0.5-10.4,1.2-15.6,1.9c-2.7,0.4-5.4,0.7-8.1,1.2
		c-4.3,0.8-8.5,1.5-12.8,2.3c-4.8,0.8-9.5,1.7-14.3,2.5c-0.9,0.2-1.7,0.3-2.6,0.5c-0.1,0-0.1,0-0.2,0c-0.1,0-0.3,0.1-0.4,0.1
		c-5,1-9.9,2.4-14.8,3.6c-0.5,0.2-1,0.5-1.5,0.8c-1.1,0.8-2.1,1.8-3,2.8c-0.5,0.6-0.9,1.2-1.3,1.8c-0.1,0.2-0.7,1.2,0.1,1
		c5.1-1.2,10.2-2.4,15.2-3.7c0,0,0.1,0,0.1,0c0.2,0,0.4-0.1,0.6-0.1c2.4-0.4,4.9-0.9,7.3-1.3c6.9-1.2,13.9-2.5,20.8-3.7
		c3.5-0.6,7-1.1,10.5-1.6c8-1.1,16-1.9,24-2.5c8-0.6,15.9-0.8,23.9-0.8c3.8,0,7.6,0,11.5,0.2c4.1,0.1,8.2,0.5,12.3,0.9c0,0,0,0,0,0
		c0,0,0.1,0,0.1,0c0.1,0,0.2,0,0.3,0c0,0-0.1,0-0.1,0c3.4,0.4,6.8,0.8,10.1,1.5c3.6,0.7,7.1,1.9,10.6,3.3c1.5,0.6,2.9,1.3,4.2,2.1
		c1.7,0.9,3.1,2.1,4.5,3.4c1.1,1.1,2,2.3,2.9,3.6c1,1.5,1.5,3,1.8,4.8c0,1.5-0.1,2.9-0.3,4.3c-0.2,1.6-0.7,3.1-1.3,4.6
		c-0.8,1.7-1.7,3.3-2.6,4.9c-0.7,1-1.5,2-2.2,3c-0.5,0.6-1.1,1.3-1.6,1.9c-0.7,0.7-1.3,1.3-2,2c-2.3,2.1-4.7,4.2-7.1,6.2
		c-2.8,2.3-5.8,4.4-8.8,6.4c-3,2-6.1,3.9-9.3,5.7c-3,1.7-6,3.4-9.1,5.2c-8.3,4.7-16.6,9.4-25.2,13.3c-6.4,2.8-12.9,5.3-19.6,7.6
		c-4.7,1.6-9.4,3.2-14,4.8c-3.6,1.2-7.3,2.4-10.9,3.6c-5.6,1.8-11.3,3.4-17,4.7c-5.2,1.3-10.6,2.3-15.9,3c-6,0.8-12.1,1-18.1,1.2
		c-4.6,0.1-9.2,0.1-13.8,0.1c-3.5,0-7.1,0-10.6,0c-7.8,0-15.5,0-23.3-0.1c-8.3-0.1-16.6-0.1-24.8-0.2c-8.2-0.1-16.5-0.3-24.8-0.5
		c-16-0.4-31.9-0.7-47.9-1.3c-5.8-0.2-11.7-0.4-17.5-0.8c-7.2-0.5-14.5-1-21.7-1.6c-8.3-1.1-16.7-2.2-25-3.3
		c-0.6-0.1-1.3-0.2-1.9-0.3c-2.4-0.4-4.8-0.9-7.1-1.3c-5.1-0.9-10.1-1.8-15.2-2.8c-8-1.4-15.9-3-23.8-4.5c-2.6-0.5-5.1-0.9-7.7-1.3
		c-5.3-0.9-10.7-1.8-16-2.6c-7.9-1.3-15.8-2.6-23.8-3.9c-2.7-0.4-5.4-1-8.1-1.5c-5.2-1-10.3-1.9-15.5-2.9
		c-7.9-1.5-15.7-3.2-23.5-4.8c-7.9-1.6-15.8-3-23.8-4.5c-3.1-0.6-6.3-1-9.5-1.5c-5.8-0.9-11.6-1.6-17.5-2.1
		c-5.6-0.5-11.3-0.8-17-0.9c-2.3-0.1-4.6-0.1-7-0.1c-8.1,0-16.3-0.1-24.5,0c-4.9,0-9.9,0.1-14.8,0.1c-10,0.1-19.9,0.5-29.8,1.5
		c-11.1,1.2-22,3.7-32.3,8.1c-9.8,4.1-18.4,10.5-25.6,18.3c-1.6,1.8-3,3.7-4.2,5.8c-1.2,2-2,4.4-2.5,6.6c-0.5,2.3-0.1,4.7,0.1,7
		c0.3,2.5,0.8,4.9,1.4,7.3c0.7,2.4,1.5,4.7,2.6,7c1,2.2,2.3,4.2,3.7,6.1c3.2,4.5,7.5,8.2,12,11.3c4.1,2.8,8.8,4.9,13.5,6.4
		c5.3,1.8,10.8,2.6,16.3,3c7.2,0.5,14.4,0.1,21.7-0.1c3.9-0.2,7.8-0.6,11.7-0.9c1.6-0.1,3.2-0.5,4.8-0.7c1.8-0.3,3.7-0.4,5.5-0.8
		c3.8-0.8,7.6-1.6,11.4-2.6c4.1-1.1,8.2-2.2,12.4-3.3c1.3-0.3,2.6-0.7,3.8-1c3.3-0.9,6.7-1.3,9.9-2.6c1.7-0.7,3.2-2.2,4.4-3.6
		c0.5-0.6,0.9-1.2,1.3-1.8c0,0,0.7-1.4-0.1-1c-3.2,1.3-6.6,1.8-9.9,2.6c-1.5,0.4-3,0.8-4.5,1.2c-2.6,0.7-5.2,1.4-7.8,2.1
		c-2.6,0.7-5.2,1.4-7.8,2c-2,0.4-3.9,0.9-5.9,1.3c-0.8,0.2-1.6,0.4-2.5,0.5c-3.1,0.5-6.2,0.9-9.2,1.4c-1.3,0.2-2.6,0.2-3.9,0.3
		c-1.8,0.2-3.7,0.3-5.5,0.5c-2.9,0.2-5.8,0.3-8.7,0.4c-6.5,0.3-13,0.2-19.5-0.4c-5.7-0.7-11.1-2.1-16.3-4.3c-5.1-2.1-9.8-5.1-14-8.7
		c-4-3.4-7.3-7.6-9.8-12.3c-1.2-2.2-2-4.5-2.8-6.8c-0.8-2.6-1.4-5.4-1.7-8.1c-0.2-1.5-0.3-2.9-0.3-4.4c0-2,0.6-4,1.3-5.9
		c0.4-1,0.9-1.9,1.5-2.8c0.2-0.3,0.4-0.5,0.6-0.8c0.2-0.2,0.3-0.4,0.5-0.6c0.2-0.2,0.5-0.5,0.7-0.7c0.9-0.8,1.8-1.6,2.8-2.4
		c1.1-0.9,2.3-1.7,3.5-2.5c3.1-2,6.3-3.7,9.7-5.3c3.6-1.5,7.3-2.8,11.1-3.9c4.2-1.3,8.5-2.1,12.9-2.9c4.1-0.7,8.2-1.2,12.3-1.6
		c4.6-0.4,9.3-0.7,13.9-0.9c9.1-0.3,18.1-0.3,27.2-0.4c5.6,0,11.2,0,16.8,0c3.2,0,6.4,0,9.6,0c3.8,0,7.6,0.2,11.5,0.4
		c4.7,0.2,9.3,0.6,14,1.1c7.9,0.9,15.8,2,23.7,3.5c5.4,1,10.8,2,16.1,3.1c7.9,1.5,15.8,3.2,23.8,4.8c7.9,1.6,15.8,3.1,23.8,4.5
		c7.9,1.5,15.9,2.7,23.9,4s15.9,2.6,23.9,3.9c7.9,1.3,15.8,2.9,23.7,4.4c7.8,1.5,15.6,2.9,23.3,4.3c2.5,0.5,5,1,7.6,1.3
		c5.2,0.7,10.3,1.4,15.5,2c2.2,0.3,4.5,0.6,6.7,0.9c0.8,0.1,1.7,0.2,2.5,0.3c4.4,0.3,8.8,0.6,13.2,0.9c4.2,0.3,8.4,0.6,12.6,0.9
		c0.8,0.1,1.7,0.1,2.5,0.1c2.7,0.1,5.3,0.2,8,0.3c16,0.6,32,1,48,1.4c8.3,0.2,16.5,0.4,24.8,0.5c8.4,0.2,16.9,0.2,25.3,0.3
		c12,0.1,23.9,0.1,35.9,0.1c3.8,0,7.5,0,11.3,0c1.9,0,3.8-0.1,5.7-0.2c2.8-0.1,5.6-0.2,8.4-0.4c5.9-0.4,11.8-1.3,17.6-2.5
		c5.3-1.1,10.5-2.4,15.7-3.9c5.7-1.6,11.3-3.6,17-5.5c4-1.3,8-2.7,12.1-4.1c2-0.7,4-1.4,6-2c3.7-1.3,7.4-2.8,11-4.2
		c4.9-2,9.7-4.2,14.4-6.6c4.2-2.2,8.4-4.4,12.5-6.8c4.2-2.4,8.5-4.8,12.7-7.2c6.6-3.7,13-7.9,19-12.5c4.3-3.3,8.3-6.9,12.2-10.6
		c1.9-1.8,3.7-3.7,5.4-5.6c1.9-2.2,3.8-4.5,5.3-7c1.2-1.8,2.2-3.7,3.1-5.7c0.4-1,0.8-2,1.1-3.1c0.4-1.1,0.5-2.3,0.7-3.4
		c0.3-1.9,0.2-3.8-0.3-5.7c-0.3-1.1-0.9-2-1.4-3c-0.6-1-1.4-1.9-2.1-2.8c-2.8-3.3-6.7-5.2-10.6-6.8c-4.7-1.9-9.6-3-14.6-3.7
		c-10.1-1.5-20.3-1.8-30.5-1.8C695.4,104.3,695.2,104.3,695,104.3L695,104.3z M679.2,188c-0.2,0.1-0.4,0.2-0.5,0.2
		C678.9,188.1,679.1,188,679.2,188L679.2,188z M34.1,196.3c-0.1,0.1-0.3,0.3-0.4,0.4C33.8,196.6,34,196.4,34.1,196.3L34.1,196.3z
		 M32.1,198.7c-0.1,0.1-0.2,0.2-0.2,0.3C31.9,199,32,198.8,32.1,198.7L32.1,198.7z M74.4,251.7c0,0,0.1,0,0.1,0
		C74.4,251.7,74.4,251.7,74.4,251.7L74.4,251.7z M714.8,111.9c0,0-0.1,0-0.1,0c0,0,0,0-0.1,0C714.6,111.9,714.7,111.9,714.8,111.9
		L714.8,111.9z"/>
	<path fill="#D9C4B8" d="M363.8,169.4c-0.2,0.1-0.4,0.2-0.6,0.3c-0.6,0.4-1.2,0.8-1.8,1.3c-0.7,0.6-1.4,1.3-2,2
		c-0.6,0.7-1.3,1.5-1.6,2.4c-1,3-2.2,5.9-3.3,8.9c-0.9,2.2-1.6,4.5-2.6,6.7c-2.3,5.3-4.6,10.5-6.9,15.8c-2.9,5.8-5.7,11.6-8.6,17.5
		c-0.3,0.3-0.3,0.6-0.2,1c0.4,0.4,1.7-0.7,1.8-0.8c0.7-0.5,1.4-1.1,2-1.8c0.8-0.8,1.8-1.8,2.3-2.8c2.5-5.2,5.1-10.5,7.7-15.7
		c1.7-3.3,3.1-6.8,4.6-10.2c1.5-3.4,3.1-6.7,4.4-10.2c1-2.5,2-5,2.9-7.5c0.8-2.1,1.7-4.2,2.4-6.4c0.1-0.3,0-0.4-0.2-0.4
		C363.9,169.4,363.9,169.4,363.8,169.4L363.8,169.4z M344.8,207c0,0.1-0.1,0.2-0.1,0.3C344.7,207.2,344.7,207.1,344.8,207L344.8,207
		z"/>
	<path fill="#D9C4B8" d="M378.3,173.4c-0.2,0.1-0.4,0.2-0.6,0.3c-0.6,0.4-1.2,0.8-1.8,1.3c-0.7,0.6-1.4,1.3-2,2
		c-0.3,0.3-0.5,0.6-0.8,1c-0.4,0.4-0.6,0.9-0.8,1.5c-0.6,3.3-1.8,6.6-3.1,9.7c-1.2,3-2.4,6.1-3.7,9c-3.2,7.3-6.8,14.4-10.3,21.5
		c-0.3,0.3-0.3,0.6-0.2,1c0.4,0.4,1.7-0.7,1.8-0.8c0.7-0.5,1.4-1.1,2-1.8c0.8-0.8,1.8-1.8,2.3-2.8c3.3-6.7,6.6-13.3,9.7-20.1
		c1.5-3.3,2.9-6.7,4.3-10.1c0.7-1.9,1.5-3.7,2.1-5.6c0.7-1.9,1.2-3.8,1.6-5.7c0.1-0.3,0-0.4-0.2-0.4
		C378.4,173.4,378.4,173.4,378.3,173.4L378.3,173.4z M365.4,198.3c-0.1,0.1-0.1,0.3-0.2,0.4C365.3,198.6,365.4,198.4,365.4,198.3
		L365.4,198.3z"/>
</g>
</svg>
