<?xml version="1.0" encoding="utf-8"?>
<!-- Generator: Adobe Illustrator 18.1.0, SVG Export Plug-In . SVG Version: 6.00 Build 0)  -->
<svg version="1.1" xmlns="http://www.w3.org/2000/svg" xmlns:xlink="http://www.w3.org/1999/xlink" x="0px" y="0px"
	 viewBox="0 0 818.5 309.5" enable-background="new 0 0 818.5 309.5" xml:space="preserve">
<g id="Layer_1">
</g>
<g id="Layer_2">
	<path fill="#BF9E80" d="M365.9,0.1c-8.2,0.8-16.2,3.1-24.1,5.4c-8.3,2.5-16.3,5.6-24.2,9.1c-15.3,6.9-29.4,16.3-42.1,27.2
		c-13.8,11.9-25.8,25.8-35.7,41c-4.4,6.7-8.1,13.6-11.3,20.9c-3.2,7.2-5.9,14.7-7.9,22.4c-4,15.3-5.1,31.5-3.8,47.2
		c1.3,15.7,5.3,31.1,11.2,45.7c5.7,14.2,13.6,27.3,23.4,39c4.8,5.8,10.4,11.1,16.1,16c5.8,5,11.9,9.6,18.4,13.6
		c12.9,8.1,27.2,13.8,41.9,17.4c15.4,3.8,31.4,5.2,47.2,4c15.5-1.2,30.7-4.9,45-11c15.5-6.6,29.6-15.7,42.5-26.5
		c25-21,44.3-49,53.3-80.4c8.8-30.6,7.4-64.2-4.1-93.8c-2.8-7.1-6.2-13.9-10.2-20.4c-3.9-6.5-8.3-12.8-13.1-18.7
		c-4.8-6-10.5-11.4-16.3-16.4c-5.9-5-12.1-9.7-18.7-13.8c-13.3-8.3-27.9-14.5-43.1-18.2c-15-3.7-30.5-4.8-45.9-3.6
		c0.7-0.9,1.3-1.8,1.9-2.8c0.3-0.7,0.6-1.4,0.9-2.1c0.2-0.9,0-1.4-0.8-1.4C366.3,0,366.1,0,365.9,0.1L365.9,0.1z M378.3,15.3
		c7.9,0.9,15.8,2.3,23.5,4.3c7.4,2,14.6,4.6,21.6,7.7c14.2,6.3,27.5,15,38.9,25.6C468,58.2,473.1,64,478,70
		c4.8,5.9,9.1,12.2,12.8,18.9c3.7,6.7,6.9,13.7,9.6,20.9c2.8,7.3,5,14.9,6.7,22.5c1.1,5.1,2,10.3,2.5,15.6
		c2.4,24.3-1.6,49-11.3,71.4c-3.2,7.2-7,14-11.3,20.6c-2.3,3.3-4.6,6.5-7.1,9.7c-1.7,2-3.4,4-5.1,5.9c-1.6,1.7-3.2,3.3-4.9,4.9
		c-1.8,1.6-3.6,3.2-5.5,4.8c-2.8,2.2-5.7,4.3-8.7,6.4c-6.3,4.1-12.9,7.7-19.8,10.9c-11.3,4.9-23.3,8.5-35.4,10.7
		c-13.1,2.3-26.6,2.7-39.9,1.3c-15.1-1.7-29.9-5.8-43.8-12.1c-13.7-6.3-26.8-14.6-38-24.7c-11.2-10.2-20.7-22.2-28.5-35.1
		c-3.9-6.5-7.2-13.4-10-20.5c-2.9-7.3-5-15-6.5-22.7c-0.8-4.1-1.4-8.2-1.9-12.3c-1.3-12.8-1-25.6,1-38.3c2-12.7,5.6-25.3,10.7-37.1
		c3.4-7.5,7.2-14.7,11.7-21.5c1.9-2.8,4-5.6,6.1-8.3c1.5-1.8,3-3.5,4.6-5.3c1.2-1.3,2.5-2.5,3.8-3.8c1.8-1.6,3.6-3.2,5.4-4.7
		c2.8-2.2,5.6-4.3,8.5-6.3c5.7-3.7,11.7-7,17.9-9.9c7.1-3.1,14.5-5.5,22.1-7.2c3.8-0.8,7.5-1.4,11.4-1.8c4-0.4,8-0.6,11.9-1
		c1.8-0.6,3.4-1.6,4.8-2.8c1.7-1.3,3.4-2.7,5-4.2C364.1,14.3,371.3,14.5,378.3,15.3L378.3,15.3z M378.3,15.3c0.1,0,0.3,0,0.4,0
		C378.6,15.3,378.5,15.3,378.3,15.3L378.3,15.3z M301.2,31.8c-0.2,0.1-0.4,0.2-0.5,0.2C300.9,32,301.1,31.9,301.2,31.8L301.2,31.8z
		 M509.6,147.6c0,0.1,0,0.1,0,0.2C509.6,147.8,509.6,147.7,509.6,147.6L509.6,147.6z M509.7,148.1c0,0.1,0,0.1,0,0.2
		C509.7,148.2,509.7,148.1,509.7,148.1L509.7,148.1z M232,167.2c0,0.1,0,0.2,0,0.2C232,167.4,232,167.3,232,167.2L232,167.2z
		 M361.1,294.4c0.1,0,0.2,0,0.3,0C361.3,294.4,361.2,294.4,361.1,294.4L361.1,294.4z"/>
	<path fill="#73482F" d="M536.2,149.3c-1.8,0.6-3.4,1.6-4.8,2.8c-3.6,2.7-7,5.9-9.9,9.3c-1.7,1.8-3.2,3.8-4.4,6
		c-0.3,0.7-0.6,1.4-0.9,2.1c-0.3,1.2,0.2,1.6,1.3,1.3c3.7,0,7.3,0,10.9-0.3c4.1-0.3,8.2-0.4,12.2-0.5c8.2-0.3,16.3-0.8,24.5-1.1
		c16.2-0.5,32.4-0.7,48.6-0.9c8.1-0.1,16.2-0.3,24.3-0.4c8.1-0.1,16.2-0.1,24.3-0.1c8,0,16,0.1,24,0.1c4.6,0,9.1,0,13.7-0.1
		c3.6,0,7.3-0.1,10.9-0.1c32,0,64-0.3,96-1.2c1-0.4,2-0.9,2.8-1.6c2.1-1.5,4-3.4,5.7-5.4c1-1.1,1.8-2.2,2.6-3.5
		c0.2-0.4,0.4-0.8,0.5-1.2c0.2-0.7-0.1-0.9-0.8-0.8c-32-0.9-64-1.2-96-1.2c-3.6,0-7.2,0-10.8-0.1c-4.5,0-9.1-0.1-13.6-0.1
		c-8,0-16,0.1-24,0.1c-8,0-16.1-0.1-24.1-0.1c-7.8-0.1-15.7-0.3-23.5-0.4c-15.4-0.2-30.7-0.4-46.1-1c-7.2-0.3-14.4-0.6-21.6-1.1
		c-3.5-0.2-7.1-0.3-10.6-0.5c-1.6-0.1-3.1-0.3-4.7-0.3C540.6,149.3,538.4,149.3,536.2,149.3L536.2,149.3z"/>
	<path fill="#73482F" d="M217.2,149.3c-8.3,0-16.7,0.3-25,0.6c-4,0.1-7.9,0.4-11.8,0.7c-4.3,0.3-8.6,0.5-12.9,0.7
		c-16.6,0.9-33.3,1.2-49.9,1.5c-16.3,0.3-32.7,0.7-49,0.9c-16.4,0.2-32.7,0.5-49.1,0.3c-2.5,0-5.1-0.1-7.6-0.1c-1,0.4-2,0.9-2.8,1.6
		c-2.1,1.5-4.1,3.4-5.8,5.4c-1,1.1-1.8,2.2-2.6,3.5c-0.2,0.4-0.4,0.8-0.5,1.2c-0.2,0.7,0.1,0.9,0.8,0.8c8.2-0.1,16.4-0.2,24.6-0.2
		c8.1,0,16.2,0.1,24.3,0.2c15.8,0.2,31.6,0.6,47.4,0.9c15.9,0.3,31.7,0.5,47.6,1.2c7.5,0.4,14.9,0.8,22.4,1.4
		c7.9,0.6,15.9,0.6,23.9,0.9c2.5,0.1,5,0.1,7.4,0.1c1.8-0.6,3.4-1.6,4.8-2.8c3.6-2.7,7-5.9,9.9-9.3c1.7-1.8,3.1-3.8,4.4-6
		c0.3-0.7,0.6-1.4,0.9-2.1c0.2-0.9,0-1.4-0.8-1.4C217.6,149.2,217.4,149.3,217.2,149.3L217.2,149.3z"/>
</g>
<g id="Layer_3">
	<path fill="#224032" d="M364.7,46.7c-17.3,4.8-34,12.5-47.7,24.2c-7.1,6-13.2,13.2-17.9,21.1c-4.8,8-8,16.9-9.4,26
		c-0.6,3.8-1,7.7-0.9,11.5c0.1,3.9,0.6,7.8,1.4,11.6c0.8,3.6,2.2,7.1,3.7,10.4c1.6,3.5,3.6,6.8,5.9,9.9c4.6,6.3,10.3,11.8,16.6,16.5
		c6,4.5,12.7,8.2,19.6,11.2c2.8,1.2,5.7,2.3,8.7,3.1c3.1,0.9,6.4,1.6,9.6,2c6.2,0.8,12.4,0.7,18.5-0.2c5.9-0.8,11.7-2.6,17.2-5
		c4.9-2.2,9.4-5.2,13.4-8.7c0,0,0,0,0,0c-2.6,1.7-5.3,3.1-8.2,4.3c0,0,0.1,0,0.1,0c-5.6,2.4-11.5,4-17.5,4.9
		c-6.9,0.9-13.9,0.9-20.8,0c-3.3-0.5-6.5-1.2-9.7-2.1c-3.2-0.9-6.4-2-9.5-3.3c-3.2-1.3-6.2-2.9-9.2-4.6c-3.1-1.8-6.1-3.8-9-6
		c-2.5-2-4.9-4-7.2-6.2c-2.4-2.3-4.5-4.8-6.6-7.4c-3.2-4.2-6-8.8-8.1-13.6c-1.6-3.8-2.7-7.8-3.2-11.9c-0.3-2.1-0.4-4.3-0.3-6.4
		c0.1-2.2,0.3-4.4,0.6-6.6c0.9-6.1,2.5-12,4.9-17.6c2.6-5.9,5.8-11.5,9.7-16.6c5.7-7.3,12.5-13.6,19.9-19.3
		C340,59.4,352.2,52.6,364.7,46.7C364.7,46.7,364.7,46.7,364.7,46.7C364.7,46.7,364.7,46.7,364.7,46.7L364.7,46.7z M309,87.2
		c-0.1,0.1-0.1,0.1-0.2,0.2C308.9,87.4,308.9,87.3,309,87.2L309,87.2z M377.9,189.4c0,0-0.1,0-0.1,0
		C377.8,189.4,377.9,189.4,377.9,189.4L377.9,189.4z M336.3,189.2c-0.1-0.1-0.3-0.1-0.4-0.2c-0.1,0-0.1-0.1-0.2-0.1
		C335.9,189.1,336.1,189.1,336.3,189.2L336.3,189.2z"/>
	<path fill="#224032" d="M390.2,104.3c-3.9,0-7.8,0.4-11.7,1.1c-7.5,1.3-14.8,3.9-21.3,7.9c0,0,0,0,0,0c5.1-2,10.5-3.4,16-4.2
		c6.7-0.9,13.6-0.9,20.3,0c6.8,1,13.4,3,19.7,5.6c7.2,3.1,14.1,7.1,20.3,11.9c2.4,1.9,4.6,3.8,6.8,5.9c2.2,2.2,4.3,4.6,6.3,7
		c3,4,5.6,8.3,7.6,12.9c1.5,3.8,2.6,7.7,3.3,11.8c0.3,2.3,0.4,4.5,0.4,6.8c0,2.4-0.2,4.7-0.5,7.1c-0.8,5.9-2.4,11.6-4.6,17
		c-1.3,3.1-2.8,6.1-4.6,9c-1.7,2.7-3.5,5.3-5.4,7.8c-4.9,6.3-10.7,11.9-17,16.8c-11.7,8.9-24.9,15.7-38.4,21.4
		c-12.7,5.3-25.8,9.5-39,13.1c0,0,0,0,0,0c8.8-1.3,17.5-3,26.1-5.2c8.3-2.1,16.5-4.7,24.4-8c8.2-3.4,16.1-7.4,23.5-12.3
		c7.3-4.8,14.2-10.4,20.1-16.8c3-3.2,5.7-6.7,8.2-10.3c2.4-3.6,4.5-7.4,6.3-11.4c3.7-8.1,5.8-16.8,6.4-25.6c0.2-2.1,0.2-4.3,0.1-6.4
		c-0.1-2.3-0.4-4.7-0.9-7c-0.8-4.2-2.2-8.2-3.9-12.1c-3.4-7.8-8.7-14.7-14.7-20.6c-5.8-5.8-12.6-10.6-19.8-14.5
		c-7.1-3.8-14.7-6.5-22.6-7.9c-3.6-0.6-7.2-0.9-10.9-0.9C390.5,104.3,390.3,104.3,390.2,104.3L390.2,104.3z M393.7,109.1
		c0.1,0,0.3,0,0.4,0.1C393.9,109.1,393.8,109.1,393.7,109.1L393.7,109.1z M413.3,114.7c0.1,0,0.2,0.1,0.3,0.1
		C413.5,114.8,413.4,114.7,413.3,114.7L413.3,114.7z M457.3,178.3c0,0.1,0,0.1,0,0.2C457.2,178.4,457.3,178.4,457.3,178.3
		L457.3,178.3z M442.6,212c-0.1,0.1-0.2,0.3-0.3,0.4C442.4,212.2,442.5,212.1,442.6,212L442.6,212z"/>
</g>
</svg>
