<?xml version="1.0" encoding="utf-8"?>
<!-- Generator: Adobe Illustrator 17.1.0, SVG Export Plug-In . SVG Version: 6.00 Build 0)  -->
<!DOCTYPE svg PUBLIC "-//W3C//DTD SVG 1.1 Basic//EN" "http://www.w3.org/Graphics/SVG/1.1/DTD/svg11-basic.dtd">
<svg version="1.1" baseProfile="basic" id="Layer_1"
	 xmlns="http://www.w3.org/2000/svg" xmlns:xlink="http://www.w3.org/1999/xlink" x="0px" y="0px" width="500px" height="500px"
	 viewBox="0 0 500 500" xml:space="preserve">
<path fill="#d9c4b8" d="M416.2,500H125V78.1h125v174.3l65.4-51.7L375,250V78.1l78.1-1.2v384.6C453.1,482.8,436.6,500,416.2,500z
	 M315.4,175.5l-49.8,43.3V62.5h93.8v156.2L315.4,175.5z M65.3,38.5v19.2c0,10.6,8.3,19.2,18.5,19.2l9.9,1.2V500h-9.9
	c-20.4,0-36.9-17.2-36.9-38.5v-423C46.9,17.3,63.4,0,83.8,0h332.4c13.6,0,25.4,7.8,31.8,19.2H83.8C73.6,19.2,65.3,27.8,65.3,38.5z"
	/>
</svg>
