<?xml version="1.0" encoding="utf-8"?>
<!-- Generator: Adobe Illustrator 18.0.0, SVG Export Plug-In . SVG Version: 6.00 Build 0)  -->
<!DOCTYPE svg PUBLIC "-//W3C//DTD SVG 1.1//EN" "http://www.w3.org/Graphics/SVG/1.1/DTD/svg11.dtd">
<svg version="1.1" id="Arrow_1_" xmlns="http://www.w3.org/2000/svg" xmlns:xlink="http://www.w3.org/1999/xlink" x="0px" y="0px"
	 width="500px" height="500px" viewBox="0 0 500 500" enable-background="new 0 0 500 500" xml:space="preserve">
<path fill="#d9c4b8" d="M15.1,109.5h52.2c0,0.1,0,0.3,0,0.4V465H15.1C6.8,465,0,458.3,0,450V124.5C0,116.3,6.8,109.5,15.1,109.5z M485,109.5h-52.1
	c0,0.1,0.1,0.3,0.1,0.4V465h52c8.2,0,15-6.8,15-15V124.5C500,116.3,493.2,109.5,485,109.5z M345.4,109.5h52.4c0,0.1-0.1,0.3-0.1,0.4
	V465H102.5V109.9c0-0.1-0.1-0.3-0.1-0.4h52.2V71.7c0-20.3,16.4-36.7,36.7-36.7h117.3c20.2,0,36.7,16.5,36.7,36.7L345.4,109.5
	L345.4,109.5z M189.9,109.5h120.2V71.7c0-0.8-0.7-1.5-1.5-1.5H191.4c-0.7,0-1.4,0.7-1.4,1.5L189.9,109.5L189.9,109.5z"/>
</svg>
