<?xml version="1.0" encoding="utf-8"?>
<!-- Generator: Adobe Illustrator 18.1.0, SVG Export Plug-In . SVG Version: 6.00 Build 0)  -->
<svg version="1.1" id="Layer_1" xmlns="http://www.w3.org/2000/svg" xmlns:xlink="http://www.w3.org/1999/xlink" x="0px" y="0px"
	 viewBox="0 0 200 200" enable-background="new 0 0 200 200" xml:space="preserve">
<g>
	<desc  xmlns:shape="http://adobe.com/products/shape">
		<shape:version>1.0.1</shape:version>
		<shape:captureDetail>1.000000</shape:captureDetail>
		<shape:source>1</shape:source>
	</desc>
	<path d="M129.9,159.1c-0.4,2.7-0.4,5.6-0.4,8.4c0,4.7-0.4,9.5-0.9,14.2c-0.1,1.1-0.5,2.4-1.6,2.4c0.5-6.9,1-13.7,1.4-20.6
		c-2.3,4.2-4.1,8.7-4.9,13.4c-0.6,3.3-4.5,4.9-7.7,5.8c-5.7,1.6-11.5,3.2-17.5,3.4c-6,0.2-12.1-0.8-17.1-4.1s-8.6-9-8.3-15
		c1.2,2.3,2.4,4.5,3.6,6.7c1.4,2.7,2.9,5.4,5.3,7.2c2.2,1.7,4.9,2.4,7.6,2.9c9.5,1.7,19.6,0.5,28.5-3.2c1.5-0.6,3.2-1.5,3.6-3.1
		c3.8-13.6,8.9-26.8,15.2-39.3c1.5,12.8,2.9,25.5,4.4,38.3c0.1,1.2,0.9,2.9,2.1,2.5c-1.5-13.7-3.1-27.5-4.9-41.2
		c-0.1-1.2-0.3-2.5,0.1-3.7c1.5,2.3,1.8,5.1,2.1,7.9c1.4,12.3,2.8,24.7,4.2,37c-0.1,0.9,1.5,0.6,2.1,1.2c0.3,0.3,0.3,0.8,0.3,1.3
		c-0.9,12.1-1.7,24.1-2.6,36.2c-0.5,0-1,0-1.6,0c0.7-10.7,1.5-21.3,2.3-32c0.1-1.7,0.2-3.4-0.5-4.9c-1-0.1-2,0.5-2.5,1.5
		c-0.5,0.9-0.6,2-0.7,3c-0.9,10.8-1.8,21.6-2.5,32.4c-0.5,0-1.1,0-1.6,0c0.6-8.1,1.2-16.2,1.8-24.3c0.2-2.8,0.4-5.7,1-8.5
		c0.5-2.6,1.3-5.5-0.1-7.6c-0.3-0.5-0.4-1.1-0.5-1.7c-1.2-10.4-2.3-20.8-3.5-31.3C133.2,148.9,130.7,153.8,129.9,159.1z"/>
	<path d="M167.8,164c0.5,0.3,1,1.3,0.3,1.5c-0.9,0.1-0.7,1.6,0.1,1.9c0.8,0.3,1.7-0.2,2.3-0.9s1.1-1.4,1.9-1.8
		c1.2-0.6,2.6-0.3,4,0.1c2.9,0.9,5.8,1.8,8.8,2.6c-0.6,7.1-1.3,14.2-2,21.3c0.4-0.7,1-1.3,1.8-1.6c-1.1,9.9-2.5,19.8-4.4,29.5
		c-0.1,0.6-0.5,1.3-1,1.2c-0.2-7.6,3.8-15.1,2.4-22.7c-0.3,1.1-1,2-2,2.6c1.9-10.1,3-20.3,3.3-30.6c-1.2-0.1-1.8,1.5-1.9,2.7
		c-0.5,6.4-1.1,12.7-1.6,19c-0.2,2.2-0.4,4.4-1,6.5c-1,3.6-3.2,6.7-4.4,10.2c-1.3,3.9-1.5,8.1-1.6,12.2c-0.5,0-1,0-1.5,0
		c0.3-1.8,0.2-4.1-1.4-4.7c2.6-5.5,2.1-11.8,2.3-17.9c0.3-9.3,2.3-18.5,2.5-27.9c0-0.6,0-1.3-0.5-1.8c-0.4-0.4-1.5-0.2-1.4,0.4
		c1.1,10.7-2.3,21.4-2.5,32.2c-0.1,4,0.2,7.9-0.6,11.8c-0.2,1.1-0.7,2.3-1.7,2.9c0.4-6.9,0.8-13.8,1.2-20.7c0-0.8,0.1-1.7-0.2-2.5
		s-1.2-1.4-2-1.2c-1.1,1.5-1.3,3.5-1.4,5.3c-0.5,8-0.7,16-0.6,24.1c-0.5,0-0.9,0-1.4,0c-0.4-11.2,0.2-22.4,1.9-33.4
		c0.2-0.4,0.9-0.3,1.2,0s0.7,0.8,1.2,0.8c0.9,0,1-1.3,0.9-2.2c-0.9-4.7-1.8-9.4-2.7-14.1c2.9,4.6,3.6,10.2,4.3,15.6
		c1.9-3.4,0.7-7.6-0.8-11.2c-1.1-2.5-2.3-4.9-3.7-7.2c-2.3-3.7-5-7.3-6-11.5c2.7-0.4,5.5,1.5,6.1,4.2c0.3,1.4,2,2.1,3.4,1.9
		c1.4-0.1,2.7-0.8,4.2-1c-0.7,0.9-1.4,1.8-2.4,2.4c-1,0.6-2.3,0.8-3.2,0.2c-0.7-0.4-1.2-1.2-1.9-1.6s-1.9-0.4-2.1,0.4
		C165,162.1,166.4,163,167.8,164 M174,203.7c1.6-2.4,2.7-5.1,3.3-7.9c0.4-2,0.6-4.1,0.8-6.1c0.6-6.4,1.1-12.7,1.7-19.1
		c0.1-1.2,0.2-2.4-0.5-3.4s-2.3-1.2-2.9-0.2c-0.1,0.2-0.1,0.5-0.2,0.8c-1.6,11.3-2.6,22.6-2.9,34C173.3,202.5,173.4,203.3,174,203.7
		 M171.5,173.3c0.1-0.1,0.1-0.3,0.1-0.5c0-1.4-0.1-2.8-0.1-4.2c0-0.3,0-0.6-0.2-0.8c-0.4-0.5-1.3-0.3-1.9-0.1
		c-0.2,0.1-0.4,0.1-0.5,0.3c-0.2,0.3-0.1,0.8,0,1.2c0.5,1.2,1,2.3,1.5,3.5C170.6,173.1,171.2,173.6,171.5,173.3 M168,187.3
		c0,0.6,0.9,0.8,1.4,0.5c0.5-0.3,0.7-0.9,0.9-1.5c0.1-0.4,0.3-0.9,0.4-1.3c0-0.2-0.4-0.2-0.6-0.1c-0.2,0.1-0.2,0.4-0.3,0.6
		C169.4,186.3,168.8,186.9,168,187.3 M163.1,157.2c-0.2-0.3-0.8-0.2-0.9,0.1c-0.1,0.3,0.2,0.8,0.5,0.7
		C163.1,158,163.3,157.5,163.1,157.2z"/>
	<path d="M83.4,208.5c1.1,1.1,2.3,2.4,2.4,4c-8.9-7.9-17.5-16-25.9-24.4c-1.2-1.2-2.5-2.4-3.3-4c-0.8-1.5-1.2-3.4-0.5-5
		c-0.3-0.3,0.4-0.7,0.8-0.4c0.3,0.3,0.6,0.8,1,0.8c0.3,0,0.5-0.2,0.8-0.4c3.5-3.4,6.7-7.1,9.3-11.2c0.4-0.6,0.8-1.3,0.9-2.1
		c0.1-0.8-0.2-1.6-1-1.9c-4.6,5.5-9.4,10.8-14.5,15.8c0.5,0.2,1.1,0.3,1.7,0.5c-1.4,0.8-2.8,1.7-4.1,2.7c-0.3,0.2-0.6,0.5-0.7,0.8
		c-0.1,0.5,0.2,1,0.5,1.4c7.1,9.1,15.2,17.5,24,25c2.7,2.3,5.5,4.5,7.7,7.4c-0.8,0-1.7,0.1-2.5,0.1c-0.6-2.3-2.9-3.6-4.8-5
		c-2.5-1.8-4.7-4.1-6.9-6.3c-3-3.1-6-6.2-8.9-9.2c-3.3-3.4-6.7-6.8-9.1-11c-0.6-1-1.1-2-2.1-2.6c6.5-7.1,12.9-14.2,19.4-21.3
		c0.2-0.2,0.4-0.4,0.6-0.5c0.3-0.1,0.7,0.1,0.9,0.3c1,0.8,1.3,2.2,1.1,3.4c-0.2,1.2-0.8,2.4-1.5,3.5c-1.8,2.8-3.8,5.4-6.1,7.8
		c2.4,4.5,5.6,8.7,9.4,12c2.3,2.1,4.9,3.9,7.1,6.1c2.7,2.8,4.8,6.2,6.2,9.8c0.1,0.4,0.8,0.5,1.3,0.4c2.6-0.4,5.1-1.3,7.4-2.4
		c4-1.9,7.8-4.9,12.3-4.7c4.1,0.1,8.3-0.7,12-2.3c-2.6,3-7.2,3-11.2,3.4c-7.6,0.9-14.9,4.7-20,10.5c-0.5,0.6-1.5-0.3-1.8-1.1
		c-1.4-2.7-3.9-4.7-6.2-6.7c-7.8-6.4-14.9-13.5-21.4-21.1c-0.9,0.2-0.5,1.6,0,2.3C65,192.8,74.8,200.1,83.4,208.5 M61.8,178.2
		c-1.1,0-1.9,1.3-1.7,2.3c0.1,1.1,0.9,2,1.6,2.8c5.4,6.3,11.6,11.7,17.8,17.2c0.8,0.7,1.6,1.4,2.5,1.9c0.3-1.5-0.5-3-1.6-4.3
		c-2.3-2.8-5.4-4.9-8.2-7.3C68,187.3,64.5,183,61.8,178.2 M88.3,207.3c0.1-0.2,0.3-0.4,0.3-0.6c0-0.7-1-0.9-1.5-0.5
		c-0.6,0.4-0.9,1.6-0.2,1.9C87.5,208.1,88,207.7,88.3,207.3z"/>
	<path d="M131,189.9c0.3-3,0.7-6.3,2.4-8.8c0.5-0.7,1.1-1.7,0.6-2.4c-3.7,3.3-4.5,8.7-5,13.6c-0.9,8.4-1.9,16.8-2.8,25.2
		c-0.5,0-1,0-1.5,0c0.9-9,1.9-17.9,2.8-26.8c-1.7,0.5-2.2,2.5-2.4,4.3c-1.1,7.5-2.3,15-3.4,22.5c-0.5,0-1,0-1.5,0
		c0.9-7.2,2-14.4,3.2-21.5c0.3-1.8,0.7-3.6,1.8-5c2.8-3.6,4.6-8,5.1-12.6c0.1-7.5,0.5-15.1,1.1-22.6c0-0.7,0.1-1.4,0.6-2
		c0.4-0.5,1.3-0.8,1.8-0.3c-0.5,0.6-0.4,1.5-0.4,2.2c0.5,7.3,1.1,14.6,1.7,21.9c0,0.9,1.4,1,2.4,0.8c0.9-0.2,2.3,0.3,2,1.2
		c-1.7,4.4-2.1,9.1-2.4,13.7c-0.6,8.1-1.3,16.1-1.9,24.2c-0.5,0-1,0-1.5,0c0.6-12,1.8-24,3.3-35.9c0-0.3,0.1-0.7,0-1
		c-0.3-0.6-1.2-0.7-1.8-0.4s-0.9,1-1.2,1.7c-1,2.6-1.3,5.4-1.6,8.2c-0.9,9.1-1.9,18.3-2.7,27.4c-0.5,0-1.1,0-1.7,0
		C129.1,208.4,130.1,199.2,131,189.9 M132.8,162.8c-0.6,0.1-0.8,1-0.8,1.7c0,4.1,0,8.2,0,12.3c0,0.4,0,0.8,0.2,1.2
		c0.2,0.3,0.6,0.6,1,0.5c0.5-0.2,0.6-0.9,0.6-1.5C133.5,172.3,133.2,167.6,132.8,162.8z"/>
	<path d="M29.1,217.7c1.2-4.6,0.5-9.5,0.4-14.3c-0.1-4.8,0.3-9.9,3.2-13.7c2.7-3.6,7.3-5.7,9.4-9.6c1-1.8,1.3-3.9,2.3-5.8
		c1.5-2.9,4.3-4.9,6.9-6.8c-1.3,1.7-2.7,3.4-4,5.1c-1.9,2.3-3.8,5.4-2.5,8.1c0.1,0.3,0.3,0.6,0.7,0.6c0.2,0,0.4-0.1,0.6-0.3
		c1.2-0.9,2.4-1.9,3.2-3.1c0.8-1.3,1.3-2.9,0.7-4.3c-0.5,0.3-1.2,0.3-1.7,0c5.3-6.7,10.8-13.1,16.5-19.4c1.5,1.8,3.1,4.3,1.8,6.2
		c-3.3,4.6-7.3,8.8-11.8,12.2c-1.3,1-2.9,2.4-2.3,4c-1.1,1-2.1,1.9-3.2,2.9c-1.9,1.7-3.8,3.4-5.1,5.6c-0.5,0.8-0.9,1.7-1.6,2.5
		c-0.8,1-1.9,1.7-2.8,2.4c-3.8,3.1-6,8-6.8,12.8c-0.9,4.8-0.6,9.8-0.4,14.8c-0.5,0-1,0-1.5,0c0.3-1,0.2-2.1-0.1-3.1
		c-0.5,0.9-0.6,2.1-0.4,3.1C30,217.7,29.5,217.7,29.1,217.7 M30.9,205.8c0.6-0.3,0.7-1.2,0.7-1.9c0.3-5.1,2.4-10.2,6.1-13.8
		c0.5-0.5,1.1-1,1.6-1.6c0.3-0.3,0.5-0.7,0.9-0.9c0.3-0.2,0.6-0.3,0.9-0.5c2.1-1.2,3.1-4,2.5-6.3c-1.3,0.7-1.9,2.3-2.8,3.4
		c-1.2,1.5-3,2.4-4.5,3.7c-2.5,2.1-4.2,5.1-5,8.3C30.4,199.2,30.5,202.6,30.9,205.8 M52.9,172.6c4.5-3.6,8.7-7.7,12.1-12.4
		c0.4-0.5,0.8-1.1,0.7-1.7c0-0.5-0.3-1-0.7-1.4c-0.1-0.1-0.2-0.2-0.4-0.3c-0.4-0.1-0.7,0.3-1,0.6c-3.8,5.8-10.2,9.8-12.8,16.1
		C51.7,173.5,52.3,173.1,52.9,172.6z"/>
	<path d="M153,217.7c-0.5,0-1,0-1.6,0c0.8-10.4,1.5-20.8,2.3-31.2c0.1-1.1,0.1-2.3-0.5-3.2c-0.6-0.9-2.2-1.3-2.8-0.3
		c-0.2,0.4-0.3,0.8-0.3,1.3c-0.7,11.2-1.5,22.3-2.3,33.5c-0.5,0-1.1,0-1.6,0c0.8-12,1.7-24,2.5-36c0-0.7,0.4-1.7,1.1-1.5
		c0.5,0.1,0.8,0.9,1.4,0.8c0.5,0,0.6-0.8,0.5-1.3c-1.4-12.1-3.2-24.2-5.4-36.3c3,5.3,3.9,11.5,4.6,17.6c0.8,6.3,1.6,12.6,2.3,18.9
		c0,0.4,0.1,0.9,0.5,1.3c0.4,0.4,1.2,0.4,1.5,0.9c0.2,0.3,0.1,0.6,0.1,1C154.6,194.7,153.8,206.2,153,217.7z"/>
	<path d="M118.8,192.3c-1.2,2-3.5,3.1-5.7,3.6c-2.3,0.5-4.6,0.4-6.9,0.6c-3.7,0.4-7.3,1.7-10.5,3.7c4.4-3.6,9.1-7.3,14.7-7.8
		c1.6-0.1,3.3,0,4.9-0.2c1.6-0.2,3.3-0.9,4.1-2.3c-3.5,0.8-7,1.1-10.6,1c2.9-3.2,9.2-0.1,12.3-3.3c-0.9,2.3-1,4.9-0.3,7.2
		c1.1-1,1.3-2.6,1.4-4.1c0.2-2.1,0.7-4.1,1.1-6.1c0.1-0.5,0.2-1,0.3-1.5c0.7-3.3,1.4-6.7,2.3-9.9c-0.1,2.5-0.2,5-0.3,7.6
		c0,1.3-0.1,2.6-0.5,3.9c-3.1,10.8-5.2,21.9-6.4,33c-0.5,0.1-1.2,0-1.7-0.3c1-6.3,1.9-12.5,2.8-18.8c-1.6,0-3,1.1-3.8,2.5
		c-0.8,1.4-1,3-1.3,4.6c-0.6,4-1.2,7.9-1.8,11.9c-0.5,0-1.1,0-1.7,0c0.8-4.9,1.6-9.8,2.4-14.7c0.2-1.2,0.4-2.4,1.4-3.1
		c1.2-0.8,2.4-1.7,3.6-2.5c0.6-0.4,1.3-0.9,1.5-1.7c0.1-0.8-0.6-1.7-1.3-1.4C119.2,193.7,119.2,192.9,118.8,192.3 M114.1,193.3
		c-0.9,0-1.9,0-2.8,0c-1.7,0-3.5,0-4.8,1c-0.3,0.2-0.6,0.7-0.3,1c0.1,0.2,0.4,0.1,0.7,0.1c2-0.2,4.1-0.4,6.1-0.5
		c1-0.1,2.2-0.2,2.9-1C115.5,193.3,114.8,193.3,114.1,193.3z"/>
	<path d="M160.5,169.9c0.5,2.9,1,5.7,1.5,8.6c-0.2,1.7-0.3,3.7,0.9,4.9c0.7,0.7,0.6,1.9,0.5,2.9c-1.5,10.4-2,20.9-1.7,31.4
		c-0.5,0-1,0-1.6,0c-0.3-10.1,0.2-20.2,1.6-30.2c0.2-1.4-0.1-3.4-1.5-3.3c-1.1,0-1.5,1.5-1.6,2.6c-0.9,10.3-1.7,20.6-2.3,30.9
		c-0.5,0-1.1,0-1.6,0c0.8-11.3,1.7-22.6,2.5-33.9c0-0.4,0.1-0.9,0.4-1.3c0.3-0.4,0.9-0.5,1.2-0.1c0.4,0.6,1.5,0.3,1.9-0.4
		c0.3-0.7,0.2-1.5,0.1-2.2c-1.6-8.5-3.2-16.9-4.8-25.4C158.6,159.1,159.6,164.6,160.5,169.9z"/>
	<path d="M24.4,217.7c-0.5,0-1,0-1.5,0c1.6-8.1,1.8-16.5,0.5-24.8c-1,5.1-2,10.2-2.9,15.2c0-8,0.9-15.9,1.9-23.8
		c0.2-1.5,0.4-3.1,1.2-4.4c1-1.5,2.8-2.3,4.2-3.5c1.5-1.2,2.6-2.8,3.7-4.5c1.5-2.2,2.9-4.3,4.4-6.4c0.6-0.9,1.9-0.9,2.9-0.6
		c1,0.2,2.1,0.6,3.1,0.3c-2.3,4.5-4.7,9.2-8.4,12.7c-2.9,2.7-6.6,4.9-8.1,8.7c-1.2,3.1-0.6,6.6-0.2,9.9
		C25.9,203.5,25.7,210.7,24.4,217.7 M23.2,184.7c-0.1,0.8,0,1.8,0.5,2.4c0.8-2.9,2.7-5.5,5.3-7.1c4.3-2.8,7-7.4,9.6-11.9
		c0.2-0.4,0.5-0.9,0.5-1.4c0-0.5-0.3-1-0.8-1.1c-0.5,0-0.9,0.3-1.2,0.7c-3.5,4.4-5.9,10-10.8,12.8C24.3,180.2,23.4,182.5,23.2,184.7
		z"/>
	<path d="M28.9,194.8c-0.5,2.3-0.5,4.7-0.5,7.1c0,5.3,0,10.5,0,15.8c-0.8,0-1.6,0-2.3,0c1-6.7,1.1-13.6,0.3-20.3
		c-0.4-3.9-1.1-8.1,0.8-11.5c1.5-2.5,4.1-4,6.3-5.9c4.1-3.7,7-9.4,12.4-10.5c-1.4,1.9-2.4,4.1-3.1,6.3c-1.5,5.3-7.2,8.1-10.6,12.4
		C30.5,190.2,29.4,192.4,28.9,194.8 M33.3,182.1c-4.6,2.1-7.3,7.6-6.2,12.5c0.5-0.2,0.7-0.8,0.8-1.4c0.8-3.6,3.5-6.5,6.3-9
		s5.7-5,7.2-8.4c0.3-0.7-0.7-1.4-1.4-1.2c-0.7,0.2-1.2,1-1.6,1.6C36.9,178.4,35.2,180.4,33.3,182.1z"/>
	<path d="M47.1,186.3c-0.6,0.1-0.9,0.9-1.2,1.4c-1.2,2.3-3.6,3.8-5.4,5.6c-3,3-4.6,7.2-5.3,11.5c-0.6,4.3-0.4,8.6-0.1,12.9
		c-0.4,0-0.9,0-1.4,0c-0.2-4.4-0.5-8.8,0.1-13.1c0.6-4.3,2.3-8.6,5.3-11.8c2.5-2.6,6.1-4.7,6.7-8.2c0.1-0.5,0.7-0.7,1.2-0.5
		s0.7,0.6,0.9,1.1c1,2.2,0.8,4.9-0.5,6.9c-0.9,1.4-2.3,2.4-3.5,3.6c-5.7,5.5-7.1,14.2-6,22c-0.4,0-0.8,0-1.3,0
		c-1.4-8.4,0.6-17.7,6.8-23.4c1-0.9,2.1-1.7,2.8-2.8C47.2,190,47.6,188,47.1,186.3z"/>
	<path d="M89,213.5c-0.9,1.3-2,2.6-1.9,4.3c-0.9,0-1.9,0-2.8-0.1c-2.1-3.3-5.1-5.7-8.1-8.3c-6.7-5.7-12.9-11.8-18.7-18.4
		c-1.9-2.1-3.7-4.3-4.8-6.9c0.5-0.4,1.3-0.2,1.8,0.1c0.5,0.4,0.8,1,1.1,1.6c1.2,2.4,3,4.5,4.8,6.5c4.9,5.3,10.3,10.2,15.6,15.1
		c3.3,3.1,6.7,6.1,10,9.2c0.3-4.7,3.9-9.1,8.5-10.5C92.6,208.6,90.8,211,89,213.5z"/>
	<path d="M101.7,204.4c-0.2-0.2-0.6-0.1-0.9-0.1c-2.2,0.4-3.8,2.3-5.1,4.1c-2.2,2.9-4.1,6.1-5.8,9.3c-0.6,0-1.2,0-1.8,0
		c2.3-4,4.8-7.9,7.5-11.7c0.4-0.5,0.8-1.1,1.3-1.6c0.8-0.7,1.9-1,2.9-1.2c1.4-0.3,2.7-0.6,4.1-0.8c0.3,0,0.9,0,0.8,0.4
		c-0.8,3.6-3.7,6.3-6.6,8.5c-2.3,1.8-4.7,3.7-5.2,6.5c-0.4,0-0.9,0-1.4,0c0.2-2.3,2.1-4.2,3.8-5.8c1.9-1.8,3.8-3.7,5.7-5.5
		C101.8,205.9,102.4,204.9,101.7,204.4z"/>
	<path d="M61.4,201.1c0.5,0.9,2,1.1,2.2,2.2c0.1,0.4-0.1,0.9-0.3,1.3c-2.3,4.4-4.6,8.7-6.8,13.1c-0.6,0-1.2,0-1.8,0.1
		c0-0.8,0.5-1.6,0.9-2.3c2.1-3.3,4-6.6,5.8-10c0.3-0.6,0.6-1.2,0.7-1.9c0-0.7-0.1-1.4-0.7-1.8c-0.5-0.1-0.8,0.4-1,0.9
		c-2.3,5.4-7.5,9.4-8.8,15.1c-0.5,0-1,0-1.5,0c0.6-4.9,4.7-8.6,7.3-12.8c0.9-1.4,1.6-2.9,2.4-4.5c0.1-0.3,0.3-0.6,0.7-0.7
		C60.9,199.8,61.1,200.6,61.4,201.1z"/>
	<path d="M39.2,217.7c-0.9-4.6-0.4-9.5,1.2-13.8c1-2.7,2.5-5.2,4.6-7.1c1.8-1.6,4-3.1,4.4-5.4c0.1-1,0.1-2.4,1.1-2.7
		c0.8,1.9,0,4.2-1.2,5.9s-3,2.9-4.4,4.5c-4.5,4.9-5.4,12.2-4.6,18.8C40,217.7,39.6,217.7,39.2,217.7z"/>
	<path d="M29.4,170.5c0.4-0.4,0.9-0.9,1-1.5c0.1-0.6-0.2-1.3-0.9-1.4c1.4-0.7,2.6-1.6,3.7-2.6c0.6-0.6,1.4-1.3,2.3-1
		c0,0.2,0,0.4-0.1,0.6c-1.1,1-2,2.2-2.8,3.4c-1.4,1.9-2.7,3.8-4.1,5.6c-1,1.4-2.3,2.9-4.1,2.6c-0.2-1.1-1.4-2.1-2.3-1.6
		c-0.6,0.3-1.1,1.3-1.8,1.1c0-0.4,0-0.8,0-1.3c1-0.2,1.6-1,2.3-1.8c0.6-0.7,1.5-1.5,2.4-1.4c0.4,0,0.8,0.3,1.2,0.4
		C27.4,172,28.5,171.3,29.4,170.5z"/>
	<path d="M107.9,201.6c1-0.3,2.1,0,3-0.4c0.2-0.1,0.4-0.3,0.7-0.3c0.2,0,0.5,0.2,0.5,0.4c-1.1,5.4-2,10.9-2.7,16.4
		c-0.5,0-1.1,0-1.7,0c0.4-4.5,1.5-8.9,2.4-13.2c0.1-0.5,0.2-1.1-0.1-1.4c-0.4-0.4-1.1-0.3-1.7,0c-1.7,0.9-2.2,3-2.6,4.9
		c-0.7,3.3-1.4,6.5-2,9.8c-0.5,0-1,0-1.6,0c0.6-4.4,1.7-8.8,3.2-12.9C105.9,203.5,106.5,202,107.9,201.6z"/>
	<path d="M43,217.7c-0.4,0-0.8,0-1.2,0c-0.7-6.1,1.4-12.4,5.5-16.8c1.2-1.3,2.6-2.5,3.6-4c1-1.5,1.6-3.4,0.9-5.1
		c0.6-0.1,1.3,0.3,1.5,0.9c0.3,0.6,0.2,1.3,0.1,1.9c-0.6,2.7-2.9,4.5-4.8,6.6C44.6,205.6,42.5,211.8,43,217.7z"/>
	<path d="M63.7,217.7c0.7-1.9,1.4-3.8,2.2-5.7c0.3-1,0.7-1.9,0.8-2.9c0-1-0.2-2.1-0.9-2.8c-1.9,2.9-3.5,6-4.8,9.3
		c-0.2,0.6-0.5,1.3-0.9,1.7c-0.4,0.5-1.2,0.7-1.8,0.4c2-4.2,4.1-8.3,6.3-12.3c0.2-0.3,0.4-0.7,0.8-0.7c0.7,1.4,1.8,2.6,3,3.6
		c0.3,0.3,0.2,0.8,0.1,1.2c-1,2.7-2.1,5.5-3.1,8.2C64.8,217.7,64.3,217.7,63.7,217.7z"/>
	<path d="M44.3,217.7c-0.4-4.5,0.9-9.1,3.6-12.8c2.4-3.3,6-6,6.9-10c0.1-0.4,0.8-0.4,1.1,0c0.2,0.4,0.1,0.9,0,1.4
		c-1.3,4.1-5.1,6.8-7.5,10.4c-2.2,3.2-3.1,7.2-2.5,11.1C45.3,217.7,44.7,217.7,44.3,217.7z"/>
	<path d="M47.2,217.7c0.2-2.3,0.9-4.7,2.1-6.8c1.6-2.8,3.9-5.2,5.8-7.8c1.3-1.8,2.5-3.8,2.3-5.9c0.6,0,1.1,0.5,1.2,1.1
		c0.1,0.6,0,1.2-0.2,1.7c-1.2,3.2-3.6,5.8-5.7,8.5c-2.1,2.7-4,5.8-4,9.2C48.2,217.7,47.7,217.7,47.2,217.7z"/>
	<path d="M175,217.7c-0.1-4.2-0.2-8.4,0.9-12.5c0.2-0.9,0.6-1.9,0.9-2.7c0.2-0.5,0.7-1.2,1.2-1c-1.3,5.3-1.8,10.8-1.4,16.2
		C176.2,217.7,175.6,217.7,175,217.7z"/>
	<path d="M68.8,217.7c-0.6,0-1.1,0-1.7,0c0.9-2.4,1.9-4.8,2.8-7.1c0.7-0.3,1.4,0.5,1.9,1.2c0.7,0.9,1.7,1.7,2.8,2.2
		c-0.2,0.8-0.5,1.6-0.8,2.4c-0.1,0.4-0.3,0.9-0.6,1.2c-0.3,0.3-0.9,0.4-1.3,0.1c0.3-0.9,0.7-1.9,0.6-2.8c0-1-0.4-2-1.3-2.4
		C70,213.9,69.2,215.8,68.8,217.7z"/>
	<path d="M183.2,217.7c-0.4,0-0.9,0-1.3,0c0.2-4.6,0.9-9.3,2.2-13.8c0.2-0.8,0.5-1.6,1.1-2c0,1.6-0.1,3.1-0.3,4.6
		C184.3,210.2,183.7,214,183.2,217.7z"/>
	<path d="M20.3,189.5c0-3.3,0-6.6,0-9.9c0.9,0,1.6-1,1.5-1.9c-0.1-0.5,0.4-1,0.9-1.1c0.5-0.1,1,0.1,1.5,0.2
		c-1.3,1.1-2.3,2.6-2.7,4.3C20.7,183.9,21.2,186.8,20.3,189.5z"/>
	<path d="M185.2,165.2c0,0.2,0,0.5,0,0.8c-2.8-0.7-5.6-1.8-8.3-3c-1-0.5-2.2-1-3.2-0.5c-0.3,0.1-0.9,0.2-0.8-0.1
		c1.1-0.8,2.5-1.1,3.9-0.8c0.9,0.2,1.8,0.7,2.6,1.2C181.1,163.9,183.1,164.7,185.2,165.2z"/>
	<path d="M20.4,171c0.6-0.9,1.7-1.4,2.7-1.3c1.5,0,2.6-1.9,4-1.4c-0.7,1.6-3.3,1.2-4.7,2.3c-0.7,0.6-1.2,1.6-2.1,1.6
		C20.3,171.8,20.3,171.4,20.4,171z"/>
	<path d="M101.7,210.5c0.1,0.1,0,0.4,0,0.5c-0.4,1.7-0.8,3.4-1.2,5c-0.1,0.5-0.2,1-0.6,1.3c-0.3,0.3-0.9,0.5-1.3,0.2
		c0.4-1.7,0.8-3.4,1.3-5c0.2-0.7,0.4-1.4,0.9-2C101,210.4,101.5,210.2,101.7,210.5z"/>
	<path d="M94.6,217.7c0.2-1.3,1-2.5,2-3.3c0,1.1-0.1,2.3-0.6,3.3C95.4,217.7,95,217.7,94.6,217.7z"/>
	<path d="M166.4,217.7c0.1-0.5,0.4-0.9,0.9-1.1c0.1,0.3,0.1,0.7,0.1,1.1C167.1,217.7,166.7,217.7,166.4,217.7L166.4,217.7z"/>
	<path d="M76.2,215.3c0.2,0,0.4,0.2,0.6,0.3c0.5,0.6,0.9,1.3,1.3,2c-1,0.1-2,0.1-3,0c0.2-0.6,0.4-1.1,0.6-1.7
		C75.7,215.7,75.9,215.4,76.2,215.3z"/>
	<path d="M57.2,33.3c0.2,0.3,0.4,0.6,0.5,1c0.9,0,1.5-1,1.9-1.8c0.4-0.8,1.6-1.6,2.2-0.8c-1.2,0.2-1.6,1.8-2.1,3
		c-0.8,2.3-2.4,4.1-4,5.9c-0.4,0.4-1.2,0.9-1.6,0.4c0.9-1.8,1.9-3.6,2.8-5.3c-1.4,1-2.5,2.3-3.2,3.9c-0.3,0.6-0.5,1.3-0.4,2
		c0.1,0.7,0.8,1.3,1.5,1.2c-2.3,5.1-4.8,10.4-4.6,16c0,1.6,0.3,3.1,0.5,4.6c0.6,4.2,1.3,8.3,1.9,12.4c0.2,1.5,0.4,3,0.1,4.4
		c-0.4,1.6-1.4,3.3-0.7,4.7c-1.3,0.4-2.6,0.8-3.9,1.2c-0.5-0.5,0.5-1,1.1-1.4c0.8-0.5,0.9-1.7,0.9-2.7c-0.3-8.7-1.1-17.4-2.4-26
		c-0.2-1.7-0.1-3.3,0.1-5c1-6.9,2.9-13.7,5.7-20.1c0.2-0.6,0.5-1.2,0.5-1.8c-0.6-6.5,1.3-13.3,5.2-18.5c0.1,0.6,0.6,1.1,1.2,1.3
		c0.2-1.4,1.1-3.2,2.4-2.7c-1.6,4.2-1.3,9.1,0.8,13.1c-0.1,0.8-1.4,0.1-1.6-0.7s-0.8-1.8-1.5-1.4c0.5,1.5,0.3,3.2-0.5,4.5
		c-0.4,0.7,0,1.6,0.4,2.3c0.4,0.7,0.5,1.8-0.2,2.2c-1.1-0.6-2.4-0.7-3.6-0.3c0.5,0.9,1.5,1.7,2.5,2.1c-1.9,0.6-3.6,2.1-4.6,3.8
		c-0.1-1.1,0-2.2,0.3-3.2c-1.7,1.1-2.5,3.3-2.3,5.3c0,0.2,0.1,0.4,0.3,0.5c0.2,0.1,0.4,0,0.6-0.1C55.1,36,56.2,34.8,57.2,33.3
		 M60.2,16.6c0.2-1.3,0.4-2.6,0.6-3.9c-1.3,0.1-2.1,1.9-1.4,2.9c0.3,0.4,0,1-0.5,1.3s-1,0.4-1.3,0.8c-0.3,0.4-0.5,0.9-0.6,1.4
		c-0.1,0.8-0.3,1.7-0.5,2.5c-0.1,0.5-0.2,1.1-0.1,1.7s0.4,1.1,1,1.3c0.5,0.2,1.2-0.2,1.3-0.7c0.1-1.2,0.2-2.4,0-3.6
		c-0.1-0.5-0.2-1.1,0-1.6s1.1-0.5,1.2,0C60,18.1,60.1,17.3,60.2,16.6 M49.9,49.1c1.4-1.9,2.1-4.3,2-6.7c0-0.2,0-0.5-0.2-0.6
		c-0.1-0.1-0.5-0.1-0.5,0.1c-0.4,2.1-0.9,4.2-1.4,6.3C49.7,48.5,49.7,48.9,49.9,49.1 M56.5,27.2c0.2,0.6,1,0.8,1.5,0.4
		c0.5-0.4,0.4-1.2-0.1-1.5c-0.4-0.2-0.8-0.5-1.2-0.8C56.2,25.9,56.2,26.6,56.5,27.2L56.5,27.2z"/>
	<path d="M71.5,174.8c0.5-1.4-0.3-2.8-0.8-4.2c-0.5-1.4-0.5-3.2,0.8-3.8c0.6,5.9,2.6,11.7,5.9,16.7c2.5,3.9,4.5,8.1,6.4,12.3
		c0.7,1.7,1.5,3.5,0.8,5.2c-2.9-8.5-12.5-12.7-17.7-20.1c-0.9-1.3-1.7-2.8-1.6-4.4c0.1-1.6,1.3-3.2,2.9-3.1c0.4,0,0.6,0.5,0.8,0.8
		s0.8,0.6,0.9,0.2c-0.8-1.1-1-2.7-0.3-3.9C70.2,171.9,70.9,173.4,71.5,174.8 M71.5,184.4c2.3,2.1,4.6,4.1,7,6.2
		c0.3,0.3,1,0.5,1.1,0.1c-1.9-4.3-5.5-7.7-9.6-10c-0.4,0.6-0.3,1.4,0,2.1C70.4,183.4,70.9,183.9,71.5,184.4 M75.6,182.7
		c-1-1.9-2.5-3.4-4.4-4.5c-1.2-0.7-2.2-1.9-2.7-3.1c-0.6,0.2-0.9,1-0.7,1.6c0.2,0.6,0.7,1.1,1.2,1.5c1.9,1.7,3.8,3.2,5.8,4.6
		C75.1,182.9,75.6,183,75.6,182.7 M68.6,179.9c-0.2-0.5-0.6-1-1.1-1.4c-0.4,0.3-0.5,0.9-0.3,1.4c0.2,0.4,0.7,0.8,1.2,0.7
		C68.5,180.4,68.6,180.1,68.6,179.9L68.6,179.9z"/>
	<path d="M142.2,78.6c-0.7-3.2-1.1-6.4-1.3-9.7c0-0.8,0-1.7,0.4-2.3c2.3-3.8,2.4-8.9,0.3-12.8c0.7-0.4,1.8-0.3,2.4,0.3
		c-0.4-0.5-0.7-1.1-1.1-1.7c-1.2-1.8-2.5-4.1-1.7-6.1c0.6,1.2,1.2,2.5,1.7,3.8c0.2-3.7-1.6-7.4-4.5-9.5c-1.9-1.3-1.9-4-2-6.2
		c0-2.3-0.4-5-2.5-5.9c0.4-0.7,0.8-1.4,1.2-2.1c6,8.7,9.6,18.9,10.3,29.5c-0.5-0.2-0.9-0.5-1.4-0.8c-0.4,1-0.1,2.3,0.7,3
		c-0.5-0.3,0.4-1.1,0.9-0.7c0.4,0.4,0.3,1.2,0,1.8c-0.2,0.1-0.5,0.1-0.8,0.2c-1.5,6.3-2,12.8-1.5,19.2c0.8,0.6,1.6-1,1.4-2.1
		c-0.6-5.5,0.1-11.1,2.2-16.2c0.5,4.7,0.7,9.4,0.6,14.1c0,1.5-0.1,3.1-1.1,4.3c-0.7,0.8-1.8,1.3-2.6,2c-0.8,0.7-1.5,2-1,2.9
		c1.1,2,0.9,4.5,0.2,6.6c-0.7,2.2-1.8,4.2-2.5,6.3c-1.3,3.8-1.4,8.4-4.5,11c-1.4,1.2-3.3,1.8-5.1,2.2c-5.2,1.3-10.7,2-16,2
		c-4.5,0-9.3-0.6-12.5-3.8c-2.6-2.5-3.6-6.3-5.6-9.3c-0.9-1.3-2.1-2.6-3.6-2.8c-2.2-0.3-4.1,1.6-4.9,3.7c-0.8,2.1-1,4.3-1.9,6.3
		c-1.4,3.1-4.5,5.3-7.7,6.4c-3.3,1.1-6.8,1.2-10.2,1.2c-2.9,0-5.9,0-8.8-0.3c-2.6-0.4-5.3-1.1-7.3-2.9c-1.6-1.5-2.5-3.4-3.5-5.4
		c-1-2.2-2.1-4.4-3.1-6.5c-1.6-3.2-3.1-6.7-2.4-10.1c12.3-3.3,25.3-4.9,37.9-2.3c3.1,0.6,6.2,1.5,9.4,1.6c4.4,0,8.7-1.5,12.9-2.7
		c10.6-3,21.7-4.1,32.6-3c1.3,0.1,2.7,0.3,3.9-0.2C141.4,81.2,142.5,79.9,142.2,78.6 M138.1,100.5c0.8-3.1,1.2-6.4,1.2-9.6
		c0-2.2-0.3-4.5-2-5.9c-1.2-1-2.7-1.2-4.2-1.3c-9.3-0.9-18.9-0.1-28,2.4c-2.5,0.7-5.2,1.8-6.4,4.1c-0.9,1.9-0.4,4.1,0.1,6
		c0.8,2.6,1.8,5.2,3.1,7.7c0.9,1.7,2,3.4,3.6,4.5c2,1.4,4.5,1.6,6.9,1.7c5.8,0.3,11.7,0.3,17.3-1.2c2.3-0.6,4.6-1.6,6.1-3.4
		C137,104.1,137.7,102.3,138.1,100.5 M50.5,91.8c-1,0-1.9,0.8-2.2,1.8c-0.3,1-0.1,2.1,0.1,3c0.9,4.9,2.1,10.4,6.2,13.2
		c2.3,1.7,5.3,2.2,8.2,2.3c4.8,0.3,9.7,0,14.5-1c1.5-0.3,3-0.7,4.2-1.7c1.4-1.1,2.1-2.8,2.6-4.5c1.1-3.1,1.7-6.4,1.9-9.6
		c0.1-1.8,0-3.8-1-5.2c-1.2-1.8-3.5-2.4-5.6-2.8c-7.9-1.6-16-1.7-23.9-0.3c-1,0.2-2.3,0.7-2.2,1.7c0.3,2.6-0.1,5.3-1,7.8
		C51.7,95,51.1,93.4,50.5,91.8 M87.5,91.8c0.2,1.1,0.6,2.1,1.1,3.1c0.2,0.4,0.6,0.9,1.1,0.8c0.4-0.1,0.6-0.5,0.8-0.9
		c0.2-0.4,0.6-0.8,1-0.6c0.3,0.1,0.8,0,1-0.4s0.2-0.7,0.3-1.1c0-0.6,0.1-1.2,0-1.7c-0.1-0.5-0.6-1.1-1.2-1.1c-0.4,0-0.8,0.2-1.2,0.3
		c-0.4,0.1-0.9,0.1-1.1-0.3c-0.3-0.5-1.2-0.4-1.6,0.1C87.3,90.5,87.3,91.2,87.5,91.8 M96,88.5c-0.7-0.4-1.6,0.1-2.1,0.8
		c-0.4,0.7-0.4,1.5-0.5,2.3c0,0.6,0,1.1,0,1.7c0,0.3,0,0.6,0.1,0.9c0.4,0.7,1.4,0.5,2.1,0.8c0.4,0.2,1.1,0,1.3-0.5
		c0.1-0.5-0.2-1.1-0.7-1.1c-1-0.1-1.6-1.7-0.9-2.4c0,0,0.1-0.1,0.2-0.1c0.4-0.1,0.6,0.9,1,0.7C96.8,90.4,97,89,96,88.5 M51.5,88.8
		c0-0.3,0-0.7,0-1c-1.7,0.3-3.2,1.5-3.8,3.1c-0.1,0.3-0.1,1,0.3,0.9C49.5,91.7,49.9,89.1,51.5,88.8 M141.2,84.6
		c-0.1-0.4-0.3-0.9-0.7-1.2c-0.4-0.3-0.9-0.3-1.3,0c-0.3,0.3-0.3,1,0.1,1.2c0.5,0.2,0.6,0.9,0.8,1.4c0.2,0.5,0.7,1.1,1.2,0.8
		C141.4,86,141.4,85.3,141.2,84.6 M139.4,39.1c0.1-0.1,0.2-0.2,0.2-0.4c0.3-1.4-0.1-2.8-1.1-3.8c-0.2,1.2-0.2,2.3,0,3.5
		C138.7,38.8,139.1,39.3,139.4,39.1 M52.3,91.9c0.5-0.6,0.4-1.6-0.2-2c-0.3,0.2-0.7,0.6-0.7,1.1c0,0.4,0.4,0.9,0.8,0.7 M145.9,73.4
		c0.3,0.1,0.8-0.2,0.7-0.6c0-0.4-0.6-0.6-0.9-0.3C145.5,72.7,145.6,73.2,145.9,73.4 M141,91.3c0.2,0,0.4-0.2,0.5-0.4
		c0-0.2-0.1-0.5-0.2-0.7c-0.1-0.1-0.3-0.2-0.5-0.1C140.5,90.4,140.6,90.9,141,91.3L141,91.3z"/>
	<path d="M63.7,149.4c0.4,2.5-0.7,5.3-2.7,6.8c-4.3,3.2-8.2,7-11.5,11.2c-0.5,0.7-1.1,1.4-1.9,1.5c-0.8,0.1-1.7-0.9-1.2-1.5
		c2.6-0.2,2.5-4.9,5-5.7c0.2,0.1,0.4,0.3,0.7,0.4c3-2.9,6-5.8,9-8.7c1-1,2.1-2.3,1.5-3.6c-2.8-6.3-5.6-12.6-8.4-18.9
		c-0.5-1.1-1-2.5-0.3-3.6c1.9,1.7,2.5,4.2,3.4,6.6c1.1,3.1,2.6,6,4.5,8.8c0-0.5,0.1-1.1,0.2-1.7c0.6-0.1,0.9,0.7,0.7,1.3
		c-0.2,0.6-0.6,1.1-0.5,1.7c0,0.4,0.2,0.7,0.5,1c0.8,1.1,1.6,2.3,2.4,3.4c1.4,2,0.8,4.9,2.5,6.7c-0.7-0.7-1.5-1.4-2.2-2.2
		C65.3,151.6,64.8,150.3,63.7,149.4 M49.6,164.7c0.5,0,0.9-0.4,0.8-0.9C49.9,163.5,49.2,164.2,49.6,164.7L49.6,164.7z"/>
	<path d="M73.2,134.5c-0.4,0.9-0.9,1.9-1.8,2.3c-0.9,0.4-2.3-0.3-2.1-1.3c0.9,0,1.6-0.9,2.2-1.6c0.6-0.7,1.6-1.5,2.4-1
		c4.6,2.9,9.9,5.1,15.4,5.7c7.9,1,15.9-1.1,23.4-4.1c1.3-0.5,2.6-1,4-0.6c1.3,0.4,2.2,2.3,1.2,3.2c-0.9,0.2-1.1-1.5-2-1.7
		c-0.2,0-0.5,0-0.7,0c-4.3,1.2-8.6,2.3-12.8,3.3c-2.4,0.6-4.9,1.2-7.4,1.3c-4.6,0.2-9.2-1-13.6-2.5
		C78.7,136.7,75.9,135.6,73.2,134.5z"/>
	<path d="M133.9,19.1c4.1,5.3,8.1,10.8,10.5,17c1.7,4.2,2.5,8.6,2.6,13.1c-2.2-4.8-3.9-9.8-5.1-14.9c-0.4-2-1.6-3.8-2.7-5.5
		c-2-2.9-4.1-5.7-6.3-8.4c-1.8-2.2-3.9-4.5-6.7-5.2c0-0.4,0.6-0.6,1-0.6C130,14.5,132.2,16.9,133.9,19.1z"/>
	<path d="M125.5,15.3c0.8,1.4,1.8,2.9,1.7,4.6c0,0.7-0.2,1.4-0.5,2c-1.1-0.5-2.2-1.3-2.9-2.3c-0.5-0.1-1-0.2-1.6-0.3
		c1.1-0.3,2.1-0.8,3-1.4c0.1-0.7-0.9-1.1-1.7-0.9c-0.7,0.2-1.4,0.6-2.2,0.5c-0.2-0.5,0.4-1,1-1.2c0.5-0.2,1.2-0.5,1.2-1.1
		c0-0.3-0.2-0.5-0.4-0.7c-0.4-0.5-1-1-1.7-1c-0.7,0-1.3,1-0.7,1.4c0.5,0.4,0.1,1.3-0.4,1.7c-0.5,0.4-1.2,0.9-1,1.6
		c0,0.2,0.2,0.4,0.4,0.6c0.6,0.6,1.1,1.2,1.7,1.8c-1.1,0.4-2.3,0.9-3.4,1.3c-0.4,0.2-1,0.3-1.4,0.1c-0.5-0.2-0.7-0.9-0.5-1.4
		c0.1-0.5,0.4-1,0.8-1.4c-0.2-0.2-0.4-0.4-0.6-0.6c-0.9,0.5-2.1-0.3-2.8-1.1c-0.4-0.4-0.8-0.9-0.8-1.5c0-0.6,0.5-1.2,1-1
		c0.9,1.8,2.5,3.2,4.4,4c0.2,0.1,0.5,0.2,0.7,0c0.3-0.2,0.2-0.6,0-0.9c-0.4-0.9-1.3-1.7-2.3-2c-1.3-0.5-0.9-2.6-2.1-3.3
		c0.2-0.4,0.8-0.2,1.2,0c1.4,1,2.6,2.3,3.5,3.8c0.4,0,0.6-0.5,0.5-0.9c-0.1-0.4-0.3-0.8-0.1-1.2c0.5-1.1-0.3-2.6-1.6-2.8
		c-1.6-0.2-3-1.1-4-2.4c-0.2-0.3-0.5-0.7-0.8-0.9c-0.3-0.2-0.9-0.2-1.1,0.1c-0.1-0.8-0.5-1.7-1.2-2.2c-0.5,0-0.8,0.7-0.6,1.2
		s0.7,0.8,0.9,1.3c-0.4,0.5-1.3,0-1.6-0.6C109.4,7.8,109,7,108.3,7c-0.2-1,0.6-2,1.7-2.1c1-0.1,2,0.3,2.8,1s1.5,1.4,2.4,1.9
		c1.4,0.8,3.2,1,4.5,2s2.2,2.7,3.8,3.3C124.4,13.5,125,14.4,125.5,15.3 M126.4,19.5c-0.1-0.2-0.3-0.4-0.4-0.6
		c-0.3,0.3-0.5,0.8-0.2,1.1C126.1,20.3,126.7,19.8,126.4,19.5L126.4,19.5z"/>
	<path d="M74,81.5c0.8,0.3,1.5,0.9,2,1.7c-2.3-0.6-4.5-1.2-6.8-1.8c-0.5-0.1-1-0.2-1.5-0.1s-0.9,0.5-0.9,1c-1.5-0.5-3.2-0.3-4.6,0.5
		c-0.3,0.2-0.7,0.1-1.1,0.1c-2.3-0.1-4.6,0.3-6.7,1.3c1-2.3,4-3.3,6.2-2.1c1.1,0.6,2.4-1.2,3.7-0.8c0.5-0.1,0-0.9-0.5-0.9
		c-0.5,0-1.2,0-1.3-0.5c2.2-0.6,4.3-1.3,6.4-1.9c0.5-0.1,1-0.3,1.5-0.1c1.6,0.6,3.3,0.8,4.9,0.5c0.2,0.9,0.8,2.1,1.7,2
		c1.8-0.3,3.8,0.5,4.7,2.1c-0.4,0.5-1.2,0-1.8-0.3c-1.8-0.9-4.2-0.3-5.7-1.6C74.1,80.8,74.1,81.1,74,81.5z"/>
	<path d="M120.8,75.2c-0.1-0.2-0.3-0.4-0.5-0.5c-0.3-0.1-0.6,0-0.9,0c-2.9,0.8-5.7,2-8.3,3.5c0.7-1.5,1.9-2.8,3.4-3.6
		c-0.7-0.4-1.6-0.6-2.4-0.6c-0.7,0.5-1.5,1-2.3,1.4c-0.2-0.3-0.1-0.9,0.2-1.2c0.3-0.3,0.7-0.4,1.2-0.6c2.1-0.7,4.5-1.3,6.4-0.1
		c0.4,0.3,0.9,0,1.4-0.1c1.3-0.2,2.3,0.9,3.2,1.8c2.2,2,5.3,2.7,8.2,3.3c0.4-0.3,0-1-0.5-1.2c-2.2-1.3-4.6-2.5-7.1-2.4
		c1.4-0.9,3.3-0.8,4.7,0.1c0.7,0.4,1.6,1.1,2.3,0.6c-0.7-0.6-1.4-1.3-2.1-2c0.8-0.2,1.8,0.2,2.3,0.9c0.6,0.7,0.9,1.5,1.4,2.2
		c0.7,1,1.6,1.8,2.7,2.3c-0.4,0.4-1.3,0.4-1.7,0c-0.5,0.6-1.4,0.7-2.2,0.5s-1.4-0.7-2-1.3c-0.6,0.4-1.2,0.9-2,1
		c-0.7,0.1-1.6-0.1-1.9-0.8c-0.2-0.5-0.9-0.6-1.4-0.5s-1,0.5-1.5,0.7c-1.3,0.5-2.8,0.1-3.7-0.9c0.3-0.8,1.1-1.3,1.9-1.3
		c0,0.4-0.1,0.8-0.1,1.2c0.8,0.2,1.8-0.2,2.2-0.9C121.5,76.2,121.2,75.7,120.8,75.2z"/>
	<path d="M144,143.5c2.1,4.8,2.7,10.1,3.3,15.3c0.8,6.8,1.7,13.6,2.5,20.4c-1.1,0.2-1.7-1.2-1.8-2.3c-1.5-10.9-3-21.8-4.5-32.7
		C143.5,143.8,143.8,143.2,144,143.5z"/>
	<path d="M148.3,97.4c0.8-2.1,0.8-4.4,0.1-6.4c-0.2-0.6-0.5-1.3-0.3-2c0.1-0.8,0.9-1.3,1.5-1.9c1.5-1.3,2.8-2.9,3.8-4.6
		c0.1-0.3,0.7-0.2,0.8,0.1c0.1,0.3,0.1,0.7,0,1c-0.3,1.8-0.7,3.6-1.1,5.4c-0.3,1.3-0.5,2.6-1,3.9c-0.6,1.5-1.5,2.8-2.4,4.2
		c-0.2,0.2-0.3,0.5-0.6,0.6C148.8,97.8,148.3,97.7,148.3,97.4 M149.9,90.9c0.4,0.3,0.9-0.3,1-0.8c0.2-0.9,0.1-1.9-0.1-2.7
		c-1,0.4-1.1,1.8-1,2.9C149.7,90.5,149.7,90.8,149.9,90.9z"/>
	<path d="M83.2,5.3c-0.4,0.7,0.8,1.5,0.5,2.2c-0.4,0.4-1,0.6-1.5,0.4c0.3-0.3,0.1-1-0.3-1.2c-0.4-0.2-0.9-0.1-1.4,0
		c-0.6,0.1-1.3,0.3-1.9,0.7S77.7,8.4,77.9,9c-0.9,0-1.7,0.1-2.6,0.1c-0.4,0-1,0.1-1.2,0.5c0.4,1.1,0.6,2.3,0.6,3.4
		c-0.2,0.1-0.5,0.1-0.7,0c-0.5-0.1-0.1-0.8-0.1-1.4c0.1-0.5-0.3-1.1-0.5-1.6c-0.3-0.5-0.4-1.2,0-1.6c0.3-0.3,0.7-0.3,1.1-0.2
		c0.4,0,0.8,0.2,1.1,0.1c0.4,0,0.8-0.3,0.8-0.7c0-0.4-0.6-0.6-0.8-0.3c-0.1-0.2-0.2-0.4-0.2-0.7c1.7-0.3,2.8-2,4.3-3
		c0.8-0.5,1.8-0.9,2.7-1.2c1.5-0.5,3-1,4.5-1.6C87.2,1,87.8,0.9,88.3,1s0.9,0.8,0.6,1.2c-0.7-0.1-1.4-0.2-2.1,0
		c-0.6,0.2-1.2,0.9-1,1.6c-0.7,0.3-1.4,0.6-2,1C83.5,4.9,83.3,5.1,83.2,5.3z"/>
	<path d="M64.4,7.9c-0.3-0.3-0.2-0.9,0.1-1.2c0.3-0.3,0.7-0.5,1.2-0.6c-0.2,0.3,0,0.8,0.4,0.9c0.4,0.1,0.7-0.2,0.9-0.6
		c0.6-1.7,2.6-2.6,4.3-2c2,0.7,4-1.8,6.1-1.4c0.2,0.1,0,0.4-0.3,0.5c-2.3,1-4.7,1.8-7.2,2.2C68,6,68,9,66.3,9.6
		c-0.3,0.1-0.4,0.4-0.6,0.6c-1.1,2.3-0.6,4.9,0,7.4c0,0.3-0.3,0.5-0.6,0.5c-0.3,0-0.5-0.3-0.7-0.5c-1.3-1.7-1.7-4.2-0.9-6.2
		c0.2-0.7,0.6-1.6,0.2-2.2C64.2,9,64.8,8.3,64.4,7.9z"/>
	<path d="M83.5,124.6c3,1.2,5.2,4.7,8.4,4.6c-0.4,0.5-0.7,1-0.8,1.6s0.2,1.3,0.8,1.5c0.4,0.1,0.8-0.1,1.2-0.1c0.4,0,0.9,0.1,0.9,0.5
		c0,0.5-0.7,0.7-1.3,0.7c-1-0.1-2-0.2-2.9-0.3c-1.7-0.1-3.5-0.3-5-1.2c1.2-0.8,2.9,1.1,4.2,0.4c0.8-0.4,0.9-1.6,0.4-2.3
		s-1.3-1.2-2.1-1.7c-2.2-1.4-4.2-3.4-6.7-3.8c-1.7-0.2-3-2-3.1-3.7c-0.1-1.8,0.8-3.4,2-4.7c1.2-1.3,2.7-2.2,4.3-3
		c-0.4,1.1-1.4,1.9-2.3,2.7c-1,0.9-2.1,1.9-2.6,3.2c-0.5,1.3-0.5,2.9,0.5,3.9C80.4,124,82.1,124,83.5,124.6z"/>
	<path d="M154,156.1c2.6,7.6,3.7,15.6,4.6,23.6c0,0.3,0,0.6,0,0.8c-0.2,0.4-0.8,0.5-1.1,0.3c-0.2-1.2-0.4-2.4-0.6-3.7
		c-1.2-7.4-2.5-14.9-3.7-22.3C153.6,155,153.8,155.6,154,156.1z"/>
	<path d="M147.1,101.6c-0.2,1-0.8,2.3-1.9,2.2c-0.7,0-1.2-0.8-1.3-1.5c-0.1-0.7,0.1-1.4,0.3-2.1c0.6-2.6,0.9-5.3,0.6-8
		c0-0.8,1.1-1.1,1.7-0.6c0.6,0.4,0.8,1.3,0.8,2.1C147.6,96.3,147.6,99,147.1,101.6z"/>
	<path d="M95.2,179.8c0.4,0.2,0.9,0.2,1.4,0.1c1.1-0.1,2.1-0.3,3.2-0.5c0.6-0.1,1.3-0.2,2-0.3c1.7-0.3,3.7-1.2,3.7-2.8
		c0.8,0,1.1,1.2,0.7,1.9c-0.4,0.7-1.2,1-2,1.2c-1.8,0.6-3.5,1.2-5.3,1.4c-1.9,0.3-3.8,0.2-5.8,0.1c-4.5-0.1-9.6-0.5-12.9-3.6
		c-0.1-0.1-0.3-0.3-0.2-0.5c0-0.2,0.4-0.2,0.4,0c2,0.8,4,1.6,5.9,2.3c1.1,0.4,2.6,0.7,3.2-0.3c0.2-0.3,0.2-0.7,0.3-1.1
		c0.1-0.3,0.5-0.7,0.9-0.5c0.4,0.6-0.6,1.5-0.3,2.2c0.2,0.3,0.6,0.4,1,0.5c0.6,0.1,1.1,0.1,1.7,0.2c0.2,0,0.5,0,0.7,0
		c0.6-0.3,0.3-1.2,0-1.8c-0.3-0.6-0.4-1.6,0.2-1.6C95,177.2,94.3,179.1,95.2,179.8z"/>
	<path d="M36.6,161.5c1.5-1.5,4.1-1,6-1.9c1-0.5,1.8-1.3,2.7-1.8c1-0.5,2.2-0.7,3.4-0.8c1-0.1,2-0.2,3-0.4c0.1,0,0.2,0,0.3,0
		c0.2,0.1,0.1,0.5,0,0.7c-0.6,1.1-1.6,2-2.7,2.4c-1,0.4-2,0.6-3,0.7c-1.7,0.2-3.3,0.5-4.9,0.7C39.8,161.5,38.2,161.7,36.6,161.5
		 M46.2,158.6c-0.5,0-0.4,1,0.1,1.1c0.5,0.1,1-0.2,1.5-0.6c0.3-0.3,0-0.8-0.4-0.9S46.6,158.4,46.2,158.6L46.2,158.6z"/>
	<path d="M106.3,115.9c-0.3-0.3-0.7-0.5-1-0.9c-0.2-0.4,0-1,0.4-1c1.6,1.2,2.8,2.9,3.5,4.8c0.6,1.6,0.7,3.6-0.5,4.9
		c-1.6,1.8-4.5,1.4-6.8,2.2c-2.3,0.8-4.1,3.1-6.5,3.8c-0.2,0-0.4,0.1-0.6,0c-0.2-0.1-0.3-0.4-0.1-0.5c3.3-2.5,7-5.2,11.2-4.9
		c1,0,1.9-0.8,2.2-1.8c0.2-1,0-2.1-0.2-3C107.7,118.1,107.3,116.8,106.3,115.9z"/>
	<path d="M86.6,9.3c-0.2-0.7-0.4-1.3-0.7-2c-0.2-0.6-0.4-1.4-0.1-2c0.4-0.9,1.7-1.1,2.7-0.9C89.2,4.5,89.7,3.6,90,3
		c0.3-0.7,0.9-1.6,1.7-1.3c3.4,1.1,6.9,2.1,10.4,2.9c1.5,0.4,3,0.7,4.5,0.2c0.3-0.1,0.5,0.3,0.4,0.6s-0.4,0.4-0.7,0.5
		c-1.4,0.4-2.9,0-4.4-0.3c-2.3-0.6-4.6-1.2-7-1.7c-0.5-0.1-1-0.2-1.5,0c-0.7,0.3-1.6-0.4-1.4-1.2c-0.9,1.1-1.8,2.2-3.1,2.6
		c-0.9,0.3-2.1,0.4-2.3,1.4C86.5,7.1,86.8,7.6,87,8C87.1,8.4,87,9.1,86.6,9.3z"/>
	<path d="M133.5,135.9c0.1-0.2,0.2-0.4,0.5-0.6c1.6-0.7,1.1-3.3,2.3-4.5c0.1-0.1,0.4-0.3,0.6-0.2c0.3,0.1,0.3,0.6,0.2,0.9
		c-0.5,1.5-1,2.9-1.6,4.3c-0.4,1.1-0.9,2.2-1.4,3.2c-1.2,2.6-2.3,5.2-3.5,7.9c-0.1,0.2-0.2,0.4-0.4,0.4c-0.2,0.1-0.5-0.1-0.6-0.4
		c0-0.2,0-0.5,0.1-0.7c0.2-0.8,0.5-1.6,0.7-2.3c0.2-0.8,0.5-1.6,0.8-2.4C131.9,139.6,132.5,137.7,133.5,135.9z"/>
	<path d="M112.1,20.2c-0.3-0.3-0.7-0.6-1.1-0.6c-0.4,0-0.9,0.3-0.9,0.7c0.9,0.7,1.8,1.5,2.5,2.4c0,0.4-0.6,0.5-1,0.3
		s-0.7-0.4-1.1-0.5c-0.5,0-1.2,0.3-1.6-0.1c0.5-0.1,0.8-0.7,0.7-1.3s-0.7-0.9-1.2-0.8c-0.5,0.1-1-0.4-1.1-1
		c-0.1-0.6,0.1-1.1,0.3-1.6c0.3-0.8,0.6-1.6,1.2-2.2c0.5,0.4,0.2,1.2-0.1,1.8c-0.3,0.6-0.3,1.5,0.3,1.7c0.3-0.5,0.7-1.1,1.1-1.7
		c0.1-0.2,0.2-0.4,0.5-0.4c0.2,0,0.5,0.1,0.7,0.2c1.7,1.3,3,3.1,3.6,5.1c0.1,0.4,0.2,0.9,0,1.3c-0.2,0.4-0.9,0.4-1,0
		C113.8,22.3,113.1,21.1,112.1,20.2z"/>
	<path d="M162.1,166.5c0.3-0.2,0.8-0.1,1.1,0.2c0.3,0.3,0.4,0.7,0.5,1.1c1.4,4.6,2.3,9.4,2.9,14.2c0,0.3,0,0.6-0.1,0.9
		c-0.1,0.2-0.5,0.4-0.8,0.2c-1.1-1.4-1-3.4-1.2-5.2c-0.1-1.4-0.4-2.7-0.8-4.1C163.3,171.3,162.7,168.9,162.1,166.5z"/>
	<path d="M119.5,166.3c2.6-2.9,5-6,7.2-9.1c0.4,0,0.4,0.6,0.3,0.9c-0.6,2-2.1,3.6-3.5,5.2c-2.6,2.8-5.2,5.7-7.8,8.5
		c-0.4,0.5-0.9,1-1.5,1.2c-1.4,0.5-2.9-0.8-3.4-2.3c0.6-0.3,1.4,0,1.6,0.6c0.2,0.5,0.1,1.2,0.6,1.3c0.3,0.1,0.7-0.1,1-0.4
		C115.9,170.2,117.7,168.3,119.5,166.3z"/>
	<path d="M69.3,13.4c-0.9,1-1.1,2.4-0.7,3.6c0.1,0.4-0.5,0.8-0.9,0.6c-0.4-0.2-0.5-0.7-0.6-1.2c-0.3-1.4-0.4-2.9-0.4-4.4
		c0-0.3,0-0.8,0.3-1c1.3-1,2.3-2.3,3.4-3.4s2.6-2.1,4.3-2c0,0.2-0.2,0.4-0.4,0.6c-1.1,0.6-2.2,1.3-3.2,2c-1,0.6-0.3,2.5-1.3,3.3
		c-0.3,0.2-0.7,0.2-1.1,0.4c-0.4,0.1-0.7,0.4-0.7,0.8C68.3,13.1,68.8,13.4,69.3,13.4z"/>
	<path d="M98.2,19.3c-0.5,0.2-1.1,0.5-1.7,0.8c-0.3-0.7,0-1.6,0.7-1.9c0.7-0.3,1.6,0.1,1.9,0.8c0.1,0.4,0.8,0.4,1.1,0
		c0.3-0.3,0.2-0.9,0.2-1.3c1.8-0.2,3.6,0.9,4.3,2.5c0.1,0.2,0.1,0.5,0,0.7c-0.2,0.3-0.8,0-1.1-0.2c-0.5-0.5-1.1-1.1-1.6-1.6
		c-1.4,1.5-1.1,4-2.6,5.3c-0.1,0.1-0.3,0.2-0.5,0.2c-0.6,0.1-1-0.8-0.7-1.4s0.9-0.9,1.4-1.3c0.5-0.4,0.8-1.2,0.4-1.7
		c-0.5,0.2-1,0.5-1.5,0.8C98.3,20.5,98.2,19.9,98.2,19.3z"/>
	<path d="M36.9,163.5c0-0.5,0.7-0.6,1.2-0.6c3.1,0,6.1-0.3,9.1-1c0.1,0.7-0.3,1.4-0.8,2c-1.5,1.7-2.9,3.5-4.4,5.2
		c-0.2,0.3-0.8,0.6-1,0.2c-0.1-0.1,0-0.4,0-0.5c0.6-1.4,1.5-2.6,2.6-3.6c0.1-0.1,0.3-0.3,0.4-0.5c0.1-0.3-0.1-0.7-0.5-0.9
		c-0.3-0.1-0.7-0.1-1.1-0.1C40.7,163.5,38.8,163.5,36.9,163.5z"/>
	<path d="M122.5,181.2c0.5,0.8,0.1,1.9-0.3,2.8c-0.1,0.2-0.2,0.5-0.5,0.7s-0.6,0.2-0.8,0c-0.7,0.1-1,1-1.1,1.7
		c-0.1,0.7-0.8,1.6-1.4,1.3c-1.4-0.6-3-0.7-4.4-0.2c-0.2-0.2-0.1-0.5,0.1-0.7c0.2-0.1,0.5-0.2,0.7-0.2c1.4-0.2,2.6-0.8,3.6-1.8
		c0.4-0.4,0.8-0.9,1.4-1.1c0.4-0.1,0.8-0.1,1.1-0.4c0.3-0.3,0.4-0.8,0.6-1.2C121.7,181.7,122,181.2,122.5,181.2z"/>
	<path d="M105.6,9c-0.5,0-1.1,0.2-1.6,0.3c-0.9,0.1-1.9,0-2.7-0.4c-0.1,0.4-0.2,0.8-0.5,1.2c-0.3,0.3-0.8,0.5-1.1,0.3
		c-0.4-0.2-0.4-0.9,0-1c0.6-0.2,1-1.1,0.6-1.6c-0.3-0.5-1.2-0.7-1.7-0.2c-0.1-0.6,0.5-1,1.1-1s1.1,0.4,1.6,0.7s1.1,0.6,1.6,0.4
		c1.3-0.3,2.7-0.2,4.1,0.1c0.5,0.1,1.1,0.4,1.4,0.9s0.1,1.3-0.5,1.4C107.3,9.4,106.4,9,105.6,9z"/>
	<path d="M148.2,82.9c0-0.2,0-0.5,0.1-0.8c0.1-0.2,0.3-0.3,0.6-0.5c0.9-0.5,1.8-0.9,2.8-1.2c0.5-0.2,1.4-0.1,1.5,0.4
		c0,0.2-0.1,0.4-0.3,0.6c-1.4,1.8-2.8,3.4-4.4,5C148.4,85.3,148.3,84.1,148.2,82.9z"/>
	<path d="M83.4,19.6c-0.2,0.9-0.5,1.8-0.9,2.6c0.9,1.3,2,2.4,3.4,3.3c-0.8,0.4-1.8-0.2-2.5-0.8c-0.9-0.7-1.9-1.7-1.8-2.8
		c0-0.8,0.6-1.4,0.9-2.1c0.3-0.7,0.2-1.7-0.5-2c-0.5-0.2-1.2,0.2-1.5,0.7s-0.2,1.2-0.1,1.8c0,0.3,0.1,0.6-0.1,0.9
		c-0.1,0.2-0.6,0.3-0.7,0c0,0,0-0.1,0-0.2c-0.1-1-0.1-1.9-0.2-2.9c0-0.4,0-0.9,0.2-1.2s0.8-0.2,1.2-0.1c1.1,0.2,2.5,0.7,2.7,1.9
		C83.5,19,83.4,19.3,83.4,19.6z"/>
	<path d="M167.8,155.4c0.8,0,1.7,0.3,2.3,0.9c0.6,0.6,0.8,1.6,0.3,2.3c-0.6,0.9-2.1,0.9-3,0.3c-0.9-0.6-1.4-1.7-1.9-2.7
		c-0.2-0.4-0.4-0.8-0.6-1.3c0.3-0.4,0.9,0,1.3,0.3C166.8,155.4,167.3,155.3,167.8,155.4 M168.5,157.9c0.4-0.2,0.5-0.9,0.2-1.2
		c-0.4-0.3-1,0-1.1,0.4C167.5,157.7,168.1,158.1,168.5,157.9z"/>
	<path d="M64.9,131.7c-0.7-0.8-0.5-2.1-0.1-3c1.1-2.7,3.2-4.9,5.8-6.3c0.3,0.5-0.1,1.1-0.6,1.5c-0.4,0.4-0.9,1-0.5,1.5
		c-0.9,0-1.8,0.7-2.1,1.6c-0.3,1-1,2-1.9,2.6c-0.6,0.4,0.6,1.5,0.1,2.1C65.3,131.6,65.1,131.7,64.9,131.7z"/>
	<path d="M125.5,25.1c-0.1,0.3-0.6,0.5-1,0.5c-0.6,0-1.2-0.1-1.6-0.5c-0.4-0.4-0.6-1-0.3-1.6c-0.3,0.2-0.6-0.2-0.5-0.5
		c0.1-0.3,0.4-0.5,0.8-0.6c0.8-0.2,1.6-0.2,2.3,0c0.5,0.1,1.2,0.3,1.5-0.1c0.4,0.8,0.7,1.6,1,2.4c0.1,0.4,0.2,0.8,0,1.2
		c-0.3,0.6-1.4,0.4-1.5-0.2c0-0.4,0.2-0.8,0.2-1.2c0-0.4-0.2-0.9-0.6-0.8C125.2,23.8,125.7,24.6,125.5,25.1 M123.6,24.3
		c0.2,0.1,0.5,0,0.6-0.2c-0.1-0.1-0.3-0.3-0.5-0.3C123.6,23.9,123.6,24.1,123.6,24.3L123.6,24.3z"/>
	<path d="M125.1,28.2c0.6-0.5,1.3-0.9,2-1c0.6,0.5,1.6,0.3,2-0.3c0.4-0.7,0-1.6-0.1-2.3c-0.1-0.8,0.2-1.9,1-1.8
		c0.5,1.7,1.2,3.2,2.1,4.7c0.2,0.3-0.2,0.7-0.6,0.7s-0.7-0.3-1-0.5c-0.3-0.2-0.8-0.3-1-0.1C128.3,28.4,126.5,28.7,125.1,28.2z"/>
	<path d="M74.8,22.7c0-1.9,0-3.8,0-5.6c0-0.7,0.3-1.7,1-1.6c0.7,0.1,0.7,1.2,0.5,1.9c-0.6,2.1-0.8,4.2-0.7,6.4
		c-0.2,0.2-0.6,0-0.7-0.2C74.8,23.3,74.8,23,74.8,22.7z"/>
	<path d="M70.3,141.8c0.1-0.2,0.4-0.2,0.6,0c-0.3,0.6,0,1.4,0.4,1.9c0.4,0.5,1,0.9,1.4,1.5c0.4,0.6,0.5,1.4,0,1.9
		c-0.3,0.4-1,0.2-1.3-0.3c-0.2-0.5-0.2-1-0.3-1.5c-0.1-0.5-0.5-1.1-1-1c0,0.4-0.3,0.8-0.7,0.8c-0.4,0-0.8-0.3-0.8-0.8
		C69.4,143.7,70,142.7,70.3,141.8z"/>
	<path d="M26.3,167.2c-0.7-0.3-1.5,0.2-2.1,0.7c-0.6,0.4-1.7,0.7-2.1,0c3.2-1.3,6.4-2.6,9.6-3.9c0.4,0.2,0,0.8-0.4,1
		c-1.1,0.6-2.3,1.2-3.3,1.8C27.4,167.2,26.8,167.5,26.3,167.2z"/>
	<path d="M110.1,75.7c0.1,0.2,0.3,0.5,0.4,0.8c-0.9,0.7-1.8,1.5-2.6,2.2c-0.4,0.3-0.7,1-0.2,1.2c0.2,0,0.5-0.1,0.7-0.3
		c0.2-0.2,0.6-0.2,0.7,0c-1.1,0.8-2.6,1.1-3.9,0.8c-0.2-0.2,0.1-0.5,0.4-0.6c0.3,0,0.6-0.1,0.8-0.4
		C107.1,77.8,108.4,76.4,110.1,75.7z"/>
	<path d="M59.6,132.2c0.1,0.2,0.2,0.6,0,0.8c-0.2,0.4-0.9,0.3-1.1-0.1c-0.3-0.3-0.3-0.8-0.4-1.3c-0.4-1.9-2-3.5-1.8-5.3
		c1.2,0.2,1.8,1.6,2.2,2.7C58.9,130,59.3,131.1,59.6,132.2z"/>
	<path d="M140.6,59.2c-0.2-1-0.8-1.8-1.2-2.6c-0.1-0.2-0.2-0.5-0.2-0.7c0-0.2,0.2-0.5,0.5-0.4c1.8,2,2.6,4.7,2.3,7.4
		c-0.6-0.2-1-0.9-1.1-1.6C140.8,60.6,140.8,59.9,140.6,59.2z"/>
	<path d="M103.5,25.6c-0.2-0.5-1-0.4-1.5-0.2c-0.5,0.2-1.1,0.6-1.6,0.4c0.5-1.2,1-2.3,1.6-3.5c0.1-0.2,0.3-0.5,0.6-0.4
		c0.1,0,0.1,0.1,0.2,0.2c0.4,0.9,0.8,1.7,1.1,2.6c0.1,0.2,0.2,0.5,0.1,0.7C103.9,25.7,103.6,25.8,103.5,25.6z"/>
	<path d="M89.9,19.3c-1-1-1.5-2.5-1.2-3.9c0.1-0.5,0.3-1,0.8-1.1c0.1,2,0.9,4,2.3,5.5C91.1,20.1,90.3,19.8,89.9,19.3z"/>
	<path d="M124.2,157.2c-0.3,0.1-0.6,0.5-0.6,0.9c0,0.8-1.5,0.4-1.8,1.1c-0.1,0.3,0,0.6,0,0.9c0,0.3-0.2,0.7-0.5,0.6
		c-0.1,0-0.1-0.1-0.2-0.2c-0.6-0.6-1-1.6-0.6-2.4c0.3-0.8,1.6-1.2,2.1-0.4c0.1-0.4,0.3-0.9,0.7-1.1
		C123.6,156.5,124.2,156.7,124.2,157.2z"/>
	<path d="M133,26.1c-0.2,0-0.3-0.2-0.4-0.3c-0.5-1-0.9-2.2-1.2-3.3c-0.1-0.4-0.1-0.9,0.3-1c0.3-0.1,0.6,0.2,0.8,0.5
		c0.8,1.2,1.7,2.8,0.8,3.9C133.3,26,133.2,26.1,133,26.1z"/>
	<path d="M109.9,12.6c0-0.7,0.3-1.5,0.9-1.8c0.6-0.3,1.6,0.4,1.2,1c-0.5,0.9-0.8,2-0.9,3.1c0,0.3-0.5,0.4-0.8,0.2
		c-0.3-0.2-0.4-0.5-0.4-0.9C109.8,13.8,109.8,13.2,109.9,12.6z"/>
	<path d="M120.4,149.8c-1.2,0.5-2.1,1.9-1.9,3.1c-0.4,0-0.7-0.3-0.9-0.6c-0.1-0.3-0.1-0.8-0.2-1.2c-0.1-0.7-0.4-1.5-1-2
		c0-0.5,0.9-0.5,1.3-0.1c0.4,0.3,0.8,0.9,1.3,0.9C119.5,149.8,120.1,149.4,120.4,149.8z"/>
	<path d="M108.5,11.8c-0.2,0.4-0.8,0.4-1.2,0.3c-0.8-0.1-1.6-0.2-2.3-0.4c-1.2-0.2-2.4,0.9-3.6,0.7c0-0.2,0.1-0.5,0.4-0.6
		C103.7,10.4,106.5,10.4,108.5,11.8z"/>
	<path d="M121.6,125.8c0.3-0.1,0.5,0.1,0.7,0.4c0.9,1.2,1.5,2.5,1.8,4c0,0.1,0,0.3,0,0.5c-0.1,0.2-0.5,0.3-0.7,0.1s-0.4-0.4-0.5-0.7
		c-0.5-1.1-0.9-2.2-1.4-3.2C121.3,126.5,121.2,125.9,121.6,125.8z"/>
	<path d="M104.5,77.8c-0.4-0.2-0.2-0.7,0-1.1c0.8-1.2,1.8-2.2,3-3c0.3-0.2,0.9-0.3,0.9,0c0,0.1-0.1,0.3-0.2,0.4
		c-1,1.1-1.9,2.2-2.9,3.3C105.2,77.7,104.8,78,104.5,77.8z"/>
	<path d="M144.3,106.7c0,1-0.2,2.1-0.7,3c-0.2,0.3-0.5,0.7-0.9,0.5c0-1.4,0.1-2.7,0.5-4c0-0.2,0.1-0.4,0.3-0.5
		C143.8,105.4,144.3,106.1,144.3,106.7z"/>
	<path d="M57.4,77.2c0.3-0.1,0.7-0.1,0.9,0.1c0.1,0.2,0.2,0.4,0.1,0.7c-0.8-0.3-1.6,0.6-2,1.5c-0.3,0.8-0.8,1.9-1.7,1.9
		C55.1,79.6,55.7,77.7,57.4,77.2z"/>
	<path d="M136.1,112.4c0.3-0.3,0.7,0.2,0.9,0.6c0.4,1.5,0.9,2.9,1.3,4.4c-0.1,0.4-0.7,0.4-1,0.1c-0.3-0.2-0.4-0.7-0.4-1.1
		C136.6,115.1,136.3,113.8,136.1,112.4z"/>
	<path d="M48.9,82.7c-1.2,1.2-2.6,2.3-4.2,3c-0.2,0.1-0.6,0.2-0.8,0C44.9,83.9,46.9,82.7,48.9,82.7z"/>
	<path d="M96.8,14.3c-0.2,0.8-0.5,1.7-0.8,2.5c0,0.1,0,0.2-0.1,0.2c-0.2,0.2-0.5-0.2-0.6-0.6c-0.1-1.3-0.2-2.8,0.6-3.9
		C96.3,13.1,96.6,13.7,96.8,14.3z"/>
	<path d="M133.6,131.9c-0.3-0.2-0.2-0.6,0-0.9c0.2-0.2,0.6-0.4,0.8-0.7c0.2-0.3,0.2-0.8,0.3-1.2c0-0.4,0.3-0.9,0.7-0.9
		c0.6,0.3,0.7,1.2,0.4,1.9c-0.3,0.6-0.9,1.1-1.4,1.5C134.2,131.7,133.9,131.9,133.6,131.9L133.6,131.9z"/>
	<path d="M135.4,37.2c-0.8,0.6-2-0.4-2-1.5c0-0.7,0.5-1.4,1.1-1.5C134.8,35.2,135.1,36.2,135.4,37.2z"/>
	<path d="M131.8,129.2c0-0.8,0-1.6,0-2.4c0-0.3,0-0.6,0.3-0.8c0.5-0.3,0.9,0.5,0.9,1.1c0,0.5,0,1,0.1,1.5c0,0.4,0,0.8-0.2,1.1
		c-0.2,0.3-0.7,0.4-0.9,0.1C131.8,129.7,131.8,129.5,131.8,129.2z"/>
	<path d="M101,128.3c0.9-0.1,1.8-0.2,2.6,0s1.7,0.8,1.9,1.7c-1.6-0.8-3.3-1.1-5-1C100.2,128.7,100.7,128.4,101,128.3z"/>
	<path d="M56,153.9c-0.6,0.8-1.5,1.4-2.5,1.6c-0.5,0.1-1,0-1.4-0.3C53.1,154.2,54.6,153.7,56,153.9z"/>
	<path d="M69.2,158.4c-0.1-0.5-0.6-0.8-0.7-1.3s0.4-1,0.9-0.9c0,1,1,1.8,2,1.6c-0.2,0.4-0.5,0.8-0.9,1
		C69.9,159,69.3,158.8,69.2,158.4z"/>
	<path d="M68.9,147.7c0.2,0,0.4-0.1,0.7-0.1c-0.3,0.8,0.2,1.8,1,2c0.4,0.1,1.1,0.3,0.9,0.7c-0.2,0-0.5,0-0.8-0.1
		c-0.7-0.1-1.5-0.2-2-0.7C68.2,148.9,68.2,147.9,68.9,147.7z"/>
	<path d="M132.1,131.7c0,1.1,0,2.3-0.1,3.4c-0.7-0.2-1.2-1-1.2-1.8C130.8,132.6,131.3,131.9,132.1,131.7z"/>
	<path d="M143.6,129.4c0,1.2,0,2.4,0,3.6c0,0.4-0.2,0.9-0.6,0.8c-0.1-1.8-0.1-3.5,0-5.3C143.5,128.5,143.6,129,143.6,129.4z"/>
	<path d="M94.5,19.5c-0.1,0.6-0.2,1.2-0.3,1.8c-0.1,0.7-0.4,1.6-1.1,1.6c0-0.4,0-0.9,0-1.3c0-0.5,0-1,0.2-1.4
		C93.5,19.8,94,19.4,94.5,19.5z"/>
	<path d="M124.1,72.3c-0.2,0-0.5,0-0.7-0.1c-0.1-0.1-0.2-0.2-0.2-0.3c0.7-0.2,1.5-0.5,2.3-0.4c0.8,0.1,1.6,0.6,1.6,1.4
		C126.2,72.4,125.1,72.2,124.1,72.3z"/>
	<path d="M41.6,87c0.1,0.4-0.5,0.7-1,0.6c-1.3,0-2.5,0-3.8,0c-0.3-0.3,0.3-0.6,0.7-0.6C38.9,87,40.2,87,41.6,87z"/>
	<path d="M133.3,33.1c-0.2,0.4-0.7,1-1.1,0.7c-0.4-0.2-0.1-0.8,0.1-1.2c0.5-0.7,1-1.3,1.7-2c0.2,0.1,0.3,0.3,0.2,0.5
		C133.9,31.8,133.6,32.5,133.3,33.1z"/>
	<path d="M116.6,24.2c0-0.1,0.1-0.2,0.2-0.2c0.6-0.4,1.3-0.6,2-0.6c0,0.5,0,1.1,0,1.7c-0.7,0.2-1.5,0-2.1-0.5
		C116.7,24.4,116.6,24.3,116.6,24.2z"/>
	<path d="M107.4,130.4c0.7-0.3,1.6-0.2,2.1,0.3c-0.6,0.6-1.3,1.2-2,1.8C107.3,131.7,107.3,131,107.4,130.4z"/>
	<path d="M74.4,153.1c0.7-0.1,1.6,0.3,1.8,1.1c-0.9,0.2-1.9,0.4-2.8,0.6C73.6,154.1,74,153.5,74.4,153.1L74.4,153.1z"/>
	<path d="M108.8,169.8c-0.6-0.6-0.2-1.6,0.2-2.3c0.2-0.3,0.4-0.6,0.7-0.8c0.3,0,0.4,0.5,0.2,0.8c-0.1,0.3-0.4,0.5-0.5,0.9
		c-0.1,0.3,0.1,0.7,0,1.1C109.5,169.8,109,170.1,108.8,169.8z"/>
	<path d="M38,104.6c0,0.2,0,0.4-0.2,0.6c-0.1,0.1-0.2,0.1-0.3,0.2c-0.9-0.8-0.7-2.4,0.2-3.1C38,103,38.1,103.8,38,104.6z"/>
	<path d="M69.6,23.1c0,0.3,0,0.6,0.1,0.9c-0.2,0.1-0.5,0.1-0.7,0c-0.8-0.9-0.6-2.4,0.3-3.1C69.4,21.7,69.5,22.4,69.6,23.1L69.6,23.1
		z"/>
	<path d="M89.9,159.7c-0.1-0.6,0-1.5,0.5-1.8c0.8,0.5,0.5,1.7,0.2,2.5c-0.1,0.2-0.2,0.4-0.4,0.5c-0.2,0.1-0.5,0-0.5-0.2
		C89.9,160.4,89.9,160,89.9,159.7L89.9,159.7z"/>
	<path d="M106.4,173.3c0.3-0.5,0.6-1,0.9-1.5c0.4,0,0.4,0.6,0.2,0.9c-0.2,0.3-0.5,0.6-0.6,0.9c-0.1,0.3,0,0.6-0.1,1
		c0,0.3-0.4,0.6-0.7,0.5C105.8,174.5,105.9,173.7,106.4,173.3L106.4,173.3z"/>
	<path d="M59.3,80.2c0.2-0.7,0.8-1.4,1.5-1.8c0.3-0.2,0.8-0.3,1.2-0.1C61.5,79.3,60.5,80.1,59.3,80.2z"/>
	<path d="M111.1,152.1c1,0.2,1.9,0.7,2.4,1.6C112.5,154.3,110.9,153.3,111.1,152.1z"/>
	<path d="M39.3,157.6c1-0.1,2-0.2,3-0.3c0.4,0,0.9,0.1,0.8,0.5c-1,0.1-2,0.3-3,0.4c-0.2,0-0.5,0-0.7,0
		C39.2,158,39.1,157.7,39.3,157.6z"/>
	<path d="M81.1,162.5c-0.2,0.4-0.7,0.5-1.1,0.3c-0.3-0.2-0.5-0.7-0.2-1.1c0.9,0,1.8-0.4,2.2-1.1C82,161.4,81.6,162.1,81.1,162.5
		L81.1,162.5z"/>
	<path d="M98.3,136.4c-1.2,0.3-2.4,0.5-3.7,0.5c-0.1-0.1-0.1-0.3-0.1-0.5c1-0.1,1.9-0.3,2.9-0.4C97.8,135.9,98.3,136,98.3,136.4z"/>
	<path d="M106.3,18.7c-0.6,0.3-1.4,0.1-1.7-0.5c-0.3-0.6,0.3-1.4,1-1.2c0.5,0.2,0.6,0.9,0.5,1.5L106.3,18.7z"/>
	<path d="M93.7,153.7c0-0.1,0-0.2,0-0.3c0.1-0.2,0.4-0.2,0.6,0c0.1,0.1,0.2,0.4,0.3,0.6c0.1,0.5,0.2,1,0.3,1.6
		c0,0.2,0.1,0.6-0.1,0.8c-0.4,0.3-0.8-0.3-0.8-0.8C93.8,154.9,93.8,154.3,93.7,153.7z"/>
	<path d="M108,176.1c0-0.4,0.2-0.8,0.5-1.2c0.6,0.3,1,1,1,1.7c-0.3,0.2-0.7,0.4-1.2,0.4C107.9,176.9,107.6,176.3,108,176.1
		L108,176.1z"/>
	<path d="M91.6,166c-0.1-0.6,0.1-1.2,0.5-1.6c0.4,0.5,0.3,1.3,0.1,1.9c-0.3,0.6-0.7,1.1-1.2,1.6C90.8,167.2,91.1,166.5,91.6,166
		L91.6,166z"/>
	<path d="M94.8,173.8c0.4-0.3,1.1,0,1.4,0.5c0.2,0.5,0.2,1.1,0.2,1.6c-0.4,0.3-0.9-0.2-1-0.7C95.2,174.7,95.2,174.1,94.8,173.8z"/>
	<path d="M81.6,128.6c0,0.3-0.5,0.4-0.8,0.2s-0.5-0.4-0.9-0.5c-0.5-0.1-1.2,0.4-1.7,0.2c-0.1-0.1-0.1-0.3-0.1-0.5
		C79.2,127.6,80.6,127.8,81.6,128.6z"/>
	<path d="M87.9,10.6C88,10.1,88.5,9.9,89,10c0,0.8-0.2,1.6-0.5,2.3c-0.3,0-0.7-0.2-0.9-0.5C87.7,11.3,87.8,10.9,87.9,10.6L87.9,10.6
		z"/>
	<path d="M99.5,1.6c-0.9,0.1-1.7,0.2-2.6,0.2c-0.1-0.1-0.1-0.3-0.1-0.5C97.9,1.1,99,1,100.1,1C100.3,1.2,99.9,1.6,99.5,1.6z"/>
	<path d="M98.1,12.2c-0.3,0.1-0.6-0.1-0.9-0.1c-0.3,0-0.7,0-1,0.3c0.1-0.4,0.3-0.9,0.7-1.2c0.3-0.3,0.9-0.4,1.3-0.1
		C98.6,11.3,98.5,12.1,98.1,12.2z"/>
	<path d="M91.9,11.1c-0.4,0.5-0.6,1.1-0.5,1.7c-0.6,0-1.1-0.7-0.9-1.3c0.1-0.6,0.9-0.9,1.5-0.7V11.1z"/>
	<path d="M93.5,169.3c-0.2,0.3-0.3,0.5-0.5,0.8c-0.1,0.1-0.2,0.3-0.4,0.3c-0.2,0-0.3-0.3-0.3-0.5c0-0.5,0-1,0.3-1.4
		c0.3-0.4,1.1-0.3,1.2,0.1C93.8,168.9,93.6,169.1,93.5,169.3z"/>
	<path d="M131.4,73.8c-0.8-0.3-1.6-0.8-2.3-1.4c-0.2-0.2-0.4-0.5-0.2-0.7C130,71.8,131,72.7,131.4,73.8z"/>
	<path d="M134.2,76.9c-1.1-0.1-2-1.1-2.1-2.2C133.1,75.1,133.9,75.9,134.2,76.9z"/>
	<path d="M77.4,166.4c0.1-0.2,0.2-0.5,0.3-0.7c0.1,0,0.4,0,0.5,0.1c0.4,0.9-0.4,2.1-1.4,2.1C76.7,167.2,77,166.7,77.4,166.4
		L77.4,166.4z"/>
	<path d="M78.7,28.3c0.3,0.3,0.5,0.6,0.8,0.9c-0.9-0.2-1.9-0.4-2.8-0.6c0-0.4,0.4-0.7,0.8-0.7S78.3,28.1,78.7,28.3L78.7,28.3z"/>
	<path d="M131.2,29.9c0,0.3-0.1,0.7-0.3,1c-0.2,0.2-0.7,0.3-0.9,0c-0.1-0.1-0.1-0.3,0-0.5c0.2-0.7,0.9-1.3,1.7-1.2
		C131.4,29.4,131.3,29.7,131.2,29.9L131.2,29.9z"/>
	<path d="M95.9,171.2c-0.2,0.3-0.7,0.1-0.7-0.2s0.2-0.6,0.5-0.8c0.3-0.2,0.6-0.3,0.8-0.6C96.9,170,96.6,171.1,95.9,171.2L95.9,171.2
		z"/>
	<path d="M101.4,168.6c-0.3,0.4-1,0-1.4-0.4c-0.1-0.1-0.2-0.2-0.2-0.4c-0.1-0.5,0.6-0.7,1-0.4C101.1,167.6,101.3,168.1,101.4,168.6
		L101.4,168.6z"/>
	<path d="M91.5,26.6c-0.8,0.3-1.7,0.2-2.4-0.3c0.7-0.4,1.5-0.6,2.3-0.4C91.6,26.1,91.6,26.4,91.5,26.6z"/>
	<path d="M79.1,172.8c-0.1,0.4-0.2,0.9-0.4,1.4c-0.7-0.7-0.2-1.9,0.3-2.8c0.1-0.1,0.3,0,0.5,0C79.5,171.9,79.4,172.4,79.1,172.8
		L79.1,172.8z"/>
	<path d="M102.5,171.8c0.2,0.2,0.2,0.6,0.2,0.9c-0.4,0.2-0.8,0.3-1.2,0.5c-0.2-0.4-0.3-0.9-0.1-1.2
		C101.6,171.6,102.3,171.5,102.5,171.8L102.5,171.8z"/>
	<path d="M129.7,61c0-0.3,0.4-0.6,0.7-0.4c0.3,0.2,0.6,0.6,0.5,1c-0.1,0.4-0.5,0.7-0.9,0.6s-0.5-0.7-0.2-1L129.7,61z"/>
	<path d="M139.6,62.3c-0.2-0.3,0.4-0.7,0.7-0.5s0.4,0.7,0.4,1.1c0,0.3,0,0.6,0,0.9C140.2,63.7,139.8,63.1,139.6,62.3L139.6,62.3z"/>
	<path d="M127.5,68.1c0.3-0.4,1.2-0.1,1.2,0.5c0,0.5-0.5,1-1.1,1C127.6,69.1,127.6,68.6,127.5,68.1L127.5,68.1z"/>
	<path d="M72.6,128.2c0.3,0.1-0.1,0.5-0.4,0.4c-0.6-0.2-1.1-1-0.8-1.6c0.2-0.2,0.6-0.2,0.8,0C72.2,127.4,72.3,127.9,72.6,128.2
		L72.6,128.2z"/>
	<path d="M114.2,14.5c0,0.2-0.2,0.4-0.4,0.4c-0.1-0.6-1.1-1-0.8-1.5c0.1-0.4,0.7-0.3,1,0C114.2,13.7,114.3,14.1,114.2,14.5
		L114.2,14.5z"/>
	<path d="M93,149.5c0.4,0.6,0.6,1.4,0.8,2.2c-0.5-0.2-1-0.4-1.2-0.9C92.3,150.3,92.5,149.6,93,149.5z"/>
	<path d="M72.5,151.3c0.3-0.6,0.8-1.1,1.4-1.4c0.3-0.1,0.7-0.2,0.9,0C74.3,150.7,73.5,151.2,72.5,151.3z"/>
	<path d="M69.1,153c-0.2,0-0.5,0-0.7,0c0.2-0.7,1.1-1.2,1.9-0.9C70.5,152.7,69.6,153.3,69.1,153L69.1,153z"/>
	<path d="M74.8,25.3c0.8-0.2,1.7,0.1,2.2,0.8C76.2,26.6,75.1,26.1,74.8,25.3z"/>
	<path d="M103,14.1c-0.4,0-0.9,0-1.4,0c0.1-0.2,0.2-0.3,0.3-0.5c0.7-0.2,1.5-0.3,2.3-0.2C103.9,13.7,103.5,13.9,103,14.1L103,14.1z"
		/>
	<path d="M113,127.8c0.4,0.1,0.7,0.4,0.8,0.8c-0.7,0.4-1.8-0.2-1.7-1C112.5,127.4,112.9,127.5,113,127.8L113,127.8z"/>
	<path d="M47.1,175.5c0.6,0,1.2,0,1.7,0.1c0.1,0.3-0.3,0.5-0.6,0.7c-0.3,0.1-0.7,0.2-1.1,0.1C46.9,176.2,46.8,175.6,47.1,175.5
		L47.1,175.5z"/>
	<path d="M89.8,151.5c-0.4,0-0.9-0.3-0.9-0.8c0.4-0.1,0.8-0.1,1.2-0.1c0.1,0,0.3,0,0.4,0.1c0.2,0.1,0.3,0.5,0.1,0.7
		c-0.1,0.2-0.5,0.2-0.7,0L89.8,151.5z"/>
	<path d="M118.9,129.1c0.4,0.3,0.7,0.8,0.8,1.3c-0.2,0.1-0.5,0.1-0.7,0c-0.3-0.4-0.6-0.8-0.8-1.3
		C118.4,128.9,118.7,128.9,118.9,129.1L118.9,129.1z"/>
	<path d="M125.9,44.7c0,0.2,0,0.3-0.1,0.5c-0.4,0-0.7-0.2-0.9-0.6c-0.1-0.3-0.1-0.7-0.1-1.1c0.6,0,1,0.6,0.9,1.1L125.9,44.7z"/>
	<path d="M76.8,138.5c-0.5-0.1-0.7-0.9-0.4-1.3c0.5,0.4,1,0.9,1.3,1.6C77.4,139,76.9,138.9,76.8,138.5L76.8,138.5z"/>
	<path d="M126.6,50.7c0.1,0.4,0.3,0.9,0.5,1.3c-0.3,0-0.7-0.1-1-0.4c-0.3-0.2-0.4-0.6-0.2-1c0.2-0.3,0.7-0.3,0.9,0L126.6,50.7z"/>
	<path d="M111.6,174.8c-0.1,0.5-0.8,0.9-1.3,0.6c0.1-0.4,0.2-0.8,0.6-1.1C111.2,174.2,111.8,174.5,111.6,174.8L111.6,174.8z"/>
	<path d="M31.5,157.4c0.4,0,0.8,0,1.3,0c0.1,0.1,0.1,0.3,0.1,0.5c-0.7,0.2-1.5,0.2-2.2-0.1C30.9,157.6,31.2,157.4,31.5,157.4
		L31.5,157.4z"/>
	<path d="M84.3,128.1c-0.5,0-1,0-1.5,0c-0.1-0.1-0.1-0.3-0.1-0.5c0.6-0.1,1.2-0.1,1.8,0C84.7,127.7,84.5,128.1,84.3,128.1
		L84.3,128.1z"/>
	<path d="M130.8,53.4c-0.3,0.2-0.7-0.3-0.6-0.7c0.1-0.4,0.3-0.8,0.3-1.2C131,51.9,131.2,52.9,130.8,53.4L130.8,53.4z"/>
	<path d="M103.1,178.2c-0.5,0-1-0.6-0.8-1.1c0.1-0.1,0.3-0.2,0.5-0.3C103.3,177,103.5,177.8,103.1,178.2L103.1,178.2z"/>
	<path d="M59.9,134c0,0.3,0,0.6,0.1,1c-0.4,0.1-0.9,0.1-1.3,0C58.6,134.4,59.2,133.9,59.9,134L59.9,134z"/>
	<path d="M77.7,156.6c-0.4,0.2-1,0.2-1.5,0.1c-0.2-0.3-0.1-0.8,0.2-1c0.4,0.2,0.8,0.5,1.2,0.7L77.7,156.6z"/>
	<path d="M127,152.8c-0.1,0-0.3,0-0.5-0.1c-0.1-0.5,0.2-1.1,0.7-1.2C127.6,151.8,127.5,152.5,127,152.8L127,152.8z"/>
	<path d="M121.4,135.5c0.1,0.5-0.3,1.1-0.8,1.1C120.1,136,120.8,135.2,121.4,135.5L121.4,135.5z"/>
	<path d="M60.6,138.2c-0.2-0.5,0.3-1.1,0.8-1c0.1,0.3,0.1,0.6,0.1,0.9C61.3,138.3,61,138.3,60.6,138.2L60.6,138.2z"/>
	<path d="M134.3,66.7c0-0.4-0.5-0.8-0.9-0.6c-0.4,0.2-0.4,0.8,0,1.1C133.7,67.4,134.3,67.1,134.3,66.7z"/>
	<path d="M76.1,158.7c0.3-0.1,0.6-0.2,0.9-0.2c0.2,0.5-0.3,1.1-0.9,1.1C75.8,159.4,75.8,158.9,76.1,158.7L76.1,158.7z"/>
	<path d="M60.1,7.4c0-0.3,0.5-0.6,0.8-0.5c0,0.3,0,0.6-0.1,0.8c-0.1,0.2-0.4,0.4-0.7,0.3C59.9,8,59.9,7.5,60.1,7.4L60.1,7.4z"/>
	<path d="M84.2,112.6c-0.2,0.3-0.8,0-0.7-0.4c0-0.4,0.4-0.6,0.8-0.8C84.4,111.8,84.4,112.2,84.2,112.6L84.2,112.6z"/>
	<path d="M67.1,134.6c0,0.1,0,0.4-0.1,0.5c-0.4,0.1-0.8,0-1.2-0.2c0.1-0.2,0.2-0.3,0.3-0.5C66.5,134.2,67,134.2,67.1,134.6
		L67.1,134.6z"/>
	<path d="M104.7,166.5c0.4,0,0.7,0.5,0.4,0.9c-0.4-0.2-0.8-0.3-1.2-0.5C103.7,166.5,104.5,166.1,104.7,166.5L104.7,166.5z"/>
	<path d="M130,21c-0.5,0.1-1.1-0.5-0.9-1.1C129.7,19.9,130.3,20.5,130,21L130,21z"/>
	<path d="M84.5,134.6c0.2,0.2,0,0.7-0.3,0.7c-0.3,0.1-0.6,0-0.9-0.2c-0.1-0.2,0.1-0.5,0.4-0.5C83.9,134.5,84.2,134.6,84.5,134.6
		L84.5,134.6z"/>
	<path d="M79,167.8c0.3-0.1,0.6,0.4,0.4,0.7c-0.2,0.3-0.6,0.4-0.9,0.3c-0.2-0.3,0.1-0.9,0.5-0.9L79,167.8z"/>
	<path d="M80.5,134.3c0.4-0.1,1,0.1,1.2,0.5c-0.4,0.1-0.9,0.1-1.4,0.1C80,134.7,80.2,134.2,80.5,134.3L80.5,134.3z"/>
	<path d="M106.2,23.1c-0.2-0.2,0.1-0.7,0.5-0.5s0.4,0.5,0.5,0.9C106.8,23.7,106.3,23.5,106.2,23.1L106.2,23.1z"/>
	<path d="M116.9,153.2c-0.1,0.2-0.3,0.4-0.6,0.4c-0.2-0.4-0.1-0.9,0.2-1.3C116.9,152.5,117.1,152.9,116.9,153.2L116.9,153.2z"/>
	<path d="M84.6,16.1c0.1,0.1,0.3,0.3,0.4,0.4c-0.3,0.5-1.3,0.1-1.3-0.4C84,15.9,84.3,15.9,84.6,16.1L84.6,16.1z"/>
	<path d="M61.4,150.8c0.3,0.5-0.1,1.3-0.8,1.3c-0.1-0.4,0.2-0.9,0.6-1L61.4,150.8z"/>
	<path d="M137.8,122.8c-0.3,0.1-0.4,0.6-0.2,0.9s0.8,0.1,0.8-0.2C138.5,123.1,138.1,122.7,137.8,122.8z"/>
	<path d="M134.8,1.6c-0.4-0.4-0.3-1.1,0-1.5C135.3,0.6,135.3,1.3,134.8,1.6L134.8,1.6z"/>
	<path d="M139.9,50.2c0.2,0.3,0.2,0.7,0.1,1.1c-0.1,0.1-0.3,0.1-0.5,0.1C139.2,51,139.4,50.4,139.9,50.2L139.9,50.2z"/>
	<path d="M114.6,160.6c0.1,0.3,0,0.7-0.3,0.8c-0.3,0.1-0.7,0-0.8-0.3C113.7,160.8,114.1,160.6,114.6,160.6L114.6,160.6z"/>
	<path d="M87.8,135.6c-0.3,0.4-1.1,0.4-1.3-0.1c0.3-0.3,0.9-0.3,1.2,0L87.8,135.6z"/>
	<path d="M81.9,166.5c0.3,0,0.4,0.4,0.2,0.6s-0.4,0.3-0.7,0.4C81.3,167.1,81.5,166.6,81.9,166.5L81.9,166.5z"/>
	<path d="M134.9,123.8c-0.2-0.2-0.1-0.7,0.2-0.8c0.3-0.1,0.7,0.2,0.6,0.5C135.6,123.8,135.3,123.9,134.9,123.8L134.9,123.8z"/>
	<path d="M76.1,128.5c0.2,0,0.4,0,0.6,0c0.1,0.1,0.1,0.3,0.1,0.5c-0.3,0.1-0.6,0.1-0.9,0.1C75.6,129,75.8,128.5,76.1,128.5
		L76.1,128.5z"/>
	<path d="M112.2,25.1c0.2-0.3,0.6-0.4,0.9-0.3c0.1,0.1,0.1,0.4,0,0.6C112.7,25.5,112.3,25.5,112.2,25.1L112.2,25.1z"/>
	<path d="M86.7,161.6c-0.4,0.4-1.2,0.4-1.6,0c0.4,0,0.9-0.1,1.4-0.2L86.7,161.6z"/>
	<path d="M91.5,6.6c-0.1-0.2,0-0.6,0.2-0.7C92,5.8,92.4,6,92.4,6.4C92.2,6.6,91.9,6.7,91.5,6.6L91.5,6.6z"/>
	<path d="M57.9,154.8c0.1-0.3,0.4-0.5,0.8-0.5c-0.2,0.5-0.6,1-1.2,1.2C57.4,155.3,57.5,154.9,57.9,154.8L57.9,154.8z"/>
	<path d="M126.9,150.2c0-0.4,0.3-0.9,0.8-0.9C127.9,149.7,127.4,150.3,126.9,150.2L126.9,150.2z"/>
	<path d="M99.2,16.6c-0.2,0.1-0.3-0.3-0.3-0.5c0.3-0.3,1,0,1.1,0.4C99.7,16.6,99.5,16.7,99.2,16.6L99.2,16.6z"/>
	<path d="M120.1,22.9c0.2-0.1,0.3,0.3,0.3,0.5c-0.3,0.1-0.7,0.1-1.1,0C119.4,23.1,119.7,22.8,120.1,22.9L120.1,22.9z"/>
	<path d="M65.7,76.5c-0.4,0-0.8-0.1-1.2-0.1c0.3-0.3,0.9-0.4,1.4-0.3C66.1,76.1,65.9,76.5,65.7,76.5L65.7,76.5z"/>
	<path d="M98.2,131.1c0.2,0.3,0,0.8-0.4,0.8c-0.2-0.1-0.3-0.3-0.3-0.5C97.6,131.1,97.9,131,98.2,131.1L98.2,131.1z"/>
	<path d="M69.6,130.4c-0.3-0.2,0-0.8,0.3-0.7c0.2,0.1,0.4,0.4,0.3,0.7C70,130.5,69.8,130.5,69.6,130.4L69.6,130.4z"/>
	<path d="M87.7,172.8c-0.2,0.1-0.3-0.3-0.3-0.5c0.2-0.1,0.5-0.1,0.7-0.1c0.1,0.1,0.1,0.3,0.1,0.5C88,172.8,87.8,172.9,87.7,172.8
		L87.7,172.8z"/>
	<path d="M91.6,172.2c0.1-0.2,0.5-0.3,0.7-0.1c-0.2,0.4-0.8,0.7-1.2,0.4C91.2,172.3,91.4,172.2,91.6,172.2L91.6,172.2z"/>
	<path d="M80.1-5.9c0,0.2,0,0.5,0,0.7c-0.1,0.1-0.3,0.1-0.5,0.1C79.4-5.4,79.7-5.9,80.1-5.9L80.1-5.9z"/>
	<path d="M130,40.6c0.4,0,0.7,0.5,0.4,0.9C130,41.5,129.8,40.9,130,40.6L130,40.6z"/>
	<path d="M98.5,149.3c0.2,0,0.5,0.2,0.6,0.4c-0.1,0.2-0.3,0.3-0.5,0.3C98.4,149.8,98.3,149.5,98.5,149.3L98.5,149.3z"/>
	<path d="M95.9,131.9c0,0.4-0.6,0.6-0.8,0.3c-0.1-0.1,0-0.4,0.1-0.5C95.5,131.7,95.7,131.8,95.9,131.9L95.9,131.9z"/>
	<path d="M50.6,147.4c-0.4,0-0.5-0.6-0.3-1C50.6,146.6,50.8,147,50.6,147.4L50.6,147.4z"/>
	<path d="M98.4,169.6c0,0.2,0,0.3,0.1,0.5c-0.1,0.1-0.3,0.1-0.5,0.1c-0.1-0.1-0.1-0.3-0.1-0.5C98,169.6,98.2,169.6,98.4,169.6
		L98.4,169.6z"/>
	<path d="M75.6,163c-0.2,0.3-0.6,0.4-0.9,0.1C74.6,162.8,75.2,162.8,75.6,163L75.6,163z"/>
	<path d="M94,10.3c0.2-0.1,0.4-0.1,0.6-0.2c0.1,0.2,0,0.6-0.2,0.6c-0.2,0.1-0.5-0.1-0.5-0.4L94,10.3z"/>
	<path d="M72.2,160.4c-0.2,0.1-0.3-0.3-0.3-0.5c0.2-0.1,0.4-0.1,0.6,0C72.6,160,72.4,160.2,72.2,160.4L72.2,160.4z"/>
	<path d="M76.7,130.9c0.2-0.1,0.3,0.2,0.2,0.4c-0.3,0.1-0.6-0.1-0.7-0.3C76.3,130.9,76.5,130.9,76.7,130.9L76.7,130.9z"/>
	<path d="M87.7,20.8c-0.3,0.1-0.4-0.4-0.2-0.6C87.7,20.1,87.8,20.6,87.7,20.8L87.7,20.8z"/>
	<path d="M129.5,137.3c-0.2,0.2-0.6-0.2-0.4-0.4c0.1-0.2,0.3-0.2,0.5-0.1C129.7,137,129.7,137.2,129.5,137.3L129.5,137.3z"/>
	<path d="M63.2,28.8c-0.3,0.1-0.4-0.4-0.2-0.6C63.2,28.1,63.3,28.6,63.2,28.8L63.2,28.8z"/>
	<path d="M74.1,30.1c0.2-0.1,0.3,0.2,0.2,0.4c-0.2,0-0.4,0-0.6-0.1C73.9,30.3,74,30.2,74.1,30.1L74.1,30.1z"/>
	<path d="M113.8,156.6c0.2,0,0.6,0.1,0.5,0.3C114.1,157.2,113.6,156.8,113.8,156.6L113.8,156.6z"/>
	<path d="M80.3,62.5c0-0.1,0.2-0.2,0.3,0c0,0.1,0,0.3-0.1,0.4C80.3,63.1,80.1,62.7,80.3,62.5L80.3,62.5z"/>
	<path d="M85.5,167.5c-0.2,0-0.4,0-0.5-0.1c0.1-0.1,0.2-0.3,0.4-0.3C85.6,167.1,85.7,167.5,85.5,167.5L85.5,167.5z"/>
	<path d="M108.6,89.5c1.1-1,2.3-1.9,3.7-2.5c0.5-0.3,1-0.5,1.6-0.7c1.6-0.6,3.4-0.7,5.1-0.4c-2,0.3-4,0.6-5.7,1.7
		C111.9,88.3,110.4,89.8,108.6,89.5L108.6,89.5z"/>
	<path d="M123.8,86.2c1.2,0,2.5,0.2,3.7,0.6c1.2,0.4,2.3,1.2,2.8,2.3C128.1,88.2,125.9,87.2,123.8,86.2z"/>
	<path d="M131.6,96.4c0,0.7-0.2,1.3-0.5,2c0.1-1-0.6-2.1-1.7-2.3c-0.6-0.1-1.3,0-1.6-0.4c0.9-0.1,1.8-0.3,2.7-0.5
		c0.2,0,0.4-0.1,0.7,0C131.6,95.4,131.7,96,131.6,96.4z"/>
	<path d="M122.8,93.4c0.2-0.4,0.9-0.1,0.9,0.3c-0.4,0.7-1.5,0.7-1.9,0.1C122.1,93.5,122.5,93.3,122.8,93.4L122.8,93.4z"/>
	<path d="M133.7,96.4c-0.2-0.4,0.1-0.9,0.5-1.2c0.3,0.5,0.4,1.1,0.2,1.6C134.2,97.1,133.7,96.8,133.7,96.4L133.7,96.4z"/>
	<path d="M118.1,97.2c0.6-0.2,1.3-0.1,1.9,0.2c-0.6,0.5-1.6,0.4-2.1-0.1L118.1,97.2z"/>
	<path d="M133.9,87.7c0-0.3,0.4-0.6,0.6-0.4C134.6,87.6,134.2,87.9,133.9,87.7L133.9,87.7z"/>
	<path d="M122.2,85.6c0.2,0.1,0.3,0.2,0.5,0.3c-0.2,0.1-0.4,0.1-0.6,0C122,85.8,122,85.4,122.2,85.6L122.2,85.6z"/>
	<path d="M113.3,89.9c-0.6,0.4-1.2,0.9-1.8,1.3c-0.1,0.1-0.3,0.2-0.3,0.4c-0.1,0.5,0.6,0.8,1.1,0.8c0.5,0,1.2,0.4,1,0.9
		c-1.4,0.2-2.8,0.2-4.2,0c-0.5,0-1.2-0.5-0.8-0.9c3.6-3.2,8.4-5.7,13.2-5c2.2,0.3,4.2,1.2,6.1,2.2c1.3,0.6,2.6,1.2,3.4,2.3
		c-0.3,0.4-0.9,0.3-1.5,0.2c-2-0.5-3.8-1.4-5.5-2.6c-0.3-0.2-0.9,0.1-1,0.5c-0.1,0.4-0.1,0.9-0.2,1.3c-0.3,0.8-1.3,1-2.2,1.1
		c-0.9,0.1-1.9,0.2-2.8,0.4c-0.5,0-1.1,0.1-1.6,0C114.8,92.6,114,91.2,113.3,89.9 M115.4,89.7c-0.3,0.8,0.2,1.8,1,2.1
		c0.8,0.4,1.7,0.3,2.5,0c0.8-0.2,1.6-0.6,2.4-0.8c0.3-0.1,0.3-0.7,0-0.9c-0.3-0.2-0.7-0.1-1.1,0c0.3-0.5,0-1.1-0.5-1.4
		c-0.5-0.3-1.1-0.3-1.6-0.3C117.2,88.4,115.8,88.6,115.4,89.7z"/>
	<path d="M74.2,88.8c2.5,0.1,4.3,2.4,5.7,4.5c0.2,0.3,0.4,0.6,0.5,1c-0.9,0.1-1.9,0.2-2.8,0.3c-0.3,0-0.6,0-0.9,0
		c-0.2-0.1-0.4-0.4-0.3-0.7c0.5,0,1.1-0.1,1.2-0.6c0-0.2,0-0.4-0.2-0.6C76.6,91.1,75.5,89.8,74.2,88.8z"/>
	<path d="M55.4,95.3c0,0.5-0.4,1.2-0.8,1c0.1-1.9,0.2-3.9,0.3-5.8c0-0.3,0-0.6,0.2-0.9c0.2-0.2,0.6-0.4,0.8-0.2
		c0.2,0.2,0.2,0.5,0.1,0.8C55.9,91.9,55.7,93.6,55.4,95.3z"/>
	<path d="M65,88.6c-1.5,0.8-2.9,1.6-4.4,2.4c-0.2,0.1-0.5,0.2-0.7,0.2c0-0.4,0.3-0.7,0.6-1C61.8,89.3,63.4,88.7,65,88.6z"/>
	<path d="M66.6,96.5c0.2-0.3,0.5-0.7,0.9-0.7c0.5,0,0.7,0.9,0.2,1.3c-0.4,0.4-1,0.4-1.6,0.4C66.2,97.2,66.4,96.8,66.6,96.5
		L66.6,96.5z"/>
	<path d="M54.3,99.3c-0.2-0.6-0.1-1.4,0.3-2c-0.2,0.4,0,0.8,0.2,1.2s0.5,0.7,0.5,1.2c0,0.4-0.4,0.9-0.8,0.7
		C54.1,100.3,54.1,99.8,54.3,99.3L54.3,99.3z"/>
	<path d="M51.8,101.3c-0.4-1.1-0.2-2.4,0.5-3.3c0,1.1,0,2.2,0,3.2C52.2,101.3,52,101.4,51.8,101.3z"/>
	<path d="M66.4,91.9c0-0.7-1.2-1-1.7-0.4c-0.5,0.5-0.3,1.5,0.2,2c0.6,0.6,0.7,1.5,0.4,2.3c-0.4,0.3-1,0.4-1.5,0.2
		c0.2-0.4,0.4-0.8,0.4-1.3c0-0.4,0-0.9-0.3-1.2c-0.6-0.7-1.8-0.3-2.4,0.3c-0.7,0.6-1.3,1.5-2.2,1.6c-0.4,0-0.9-0.2-0.8-0.6
		c0-0.1,0.1-0.2,0.1-0.2c3.2-4,8.8-6,13.8-4.8c1.2,0.3,2.6,0.9,2.8,2.2c0.1,0.9-0.6,1.8-1.4,2.2c-0.8,0.4-1.8,0.4-2.7,0.5
		c-0.8,0-1.7,0-2.5,0.1C67.3,94.7,66.4,93.2,66.4,91.9 M73,92.5c0.2-1.1-0.9-2-2-2.1c-0.8-0.1-1.6,0-2.3,0.3
		c-0.2,0.1-0.4,0.2-0.5,0.4c-0.3,0.5,0.1,1.5-0.4,1.7c0.2,1,1.6,1.2,2.6,1.1C71.4,93.9,72.7,93.6,73,92.5z"/>
	<path d="M90,92.5c0.1-0.2,0.3-0.4,0.6-0.4c0.1,0.5,0.1,1,0,1.5C90.1,93.5,89.8,92.9,90,92.5L90,92.5z"/>
	<path d="M54.2,105.9c-0.2,0.6-1.2,0.2-1.2-0.3s0.4-1.1,0.9-1.4C54.2,104.7,54.3,105.3,54.2,105.9L54.2,105.9z"/>
	<path d="M118.9,90.8c-0.5,0-1,0-1.4,0c-0.1-0.4,0.2-0.9,0.7-0.9C118.6,89.8,119.1,90.3,118.9,90.8L118.9,90.8z"/>
	<path d="M70.1,91.8c0.7,0,1.7,0.1,1.7,0.8c-0.8,0.2-1.7,0.2-2.4-0.2C69.2,92.1,69.7,91.8,70.1,91.8z"/>
</g>
</svg>
