<?xml version="1.0" encoding="utf-8"?>
<!-- Generator: Adobe Illustrator 18.0.0, SVG Export Plug-In . SVG Version: 6.00 Build 0)  -->
<!DOCTYPE svg PUBLIC "-//W3C//DTD SVG 1.1//EN" "http://www.w3.org/Graphics/SVG/1.1/DTD/svg11.dtd">
<svg version="1.1" id="Arrow_1_" xmlns="http://www.w3.org/2000/svg" xmlns:xlink="http://www.w3.org/1999/xlink" x="0px" y="0px"
	 width="500px" height="500px" viewBox="0 0 500 500" enable-background="new 0 0 500 500" xml:space="preserve">
<path fill="#d9c4b8" d="M500,90.9c-0.5-11.7-7.6-14.5-15.9-6.2l-37.4,37.4c-8.2,8.2-21.7,8.2-30,0l-38.9-38.9c-8.2-8.2-8.2-21.7,0-30l37.4-37.4
	c8.2-8.2,5.5-15.4-6.2-15.9c0,0-58.1-2.4-87.5,27c-29.3,29.3-37.6,71.3-25.8,108.3l-80.2,80.2l-80.2,80.2
	c-37-11.9-79-3.6-108.4,25.8c-29.4,29.4-27,87.5-27,87.5c0.5,11.6,7.6,14.4,15.9,6.2l37.4-37.4c8.2-8.2,21.7-8.2,30,0l38.9,38.8
	c8.2,8.2,8.2,21.7,0,30l-37.4,37.4c-8.2,8.2-5.5,15.4,6.2,15.9c0,0,58.1,2.4,87.5-27c29.3-29.3,37.6-71.3,25.8-108.3l80.2-80.2l0,0
	l80.2-80.2c37,11.9,79,3.6,108.3-25.8C502.4,149,500,90.9,500,90.9z"/>
</svg>
